<svg width="1363" height="167" viewBox="0 0 1363 167" fill="none" xmlns="http://www.w3.org/2000/svg">
<rect width="1363" height="167" rx="15" fill="#F0F0F0"/>
<path d="M0 15C0 6.71573 6.71573 0 15 0H37V167H15C6.71573 167 0 160.284 0 152V15Z" fill="#424241"/>
<path d="M100.906 50.9219L93.3945 48.2383V45.0859L103.602 49.375V51.6367L100.906 50.9219ZM93.3945 53.1719L100.918 50.4297L103.602 49.7852V52.0352L93.3945 56.3242V53.1719ZM117.371 55.2578V58H108.289V55.2578H117.371ZM109.438 40.9375V58H105.922V40.9375H109.438ZM116.188 47.8867V50.5586H108.289V47.8867H116.188ZM117.359 40.9375V43.6914H108.289V40.9375H117.359ZM124.215 55.5977C124.629 55.5977 124.996 55.5195 125.316 55.3633C125.637 55.1992 125.887 54.9727 126.066 54.6836C126.254 54.3867 126.352 54.0391 126.359 53.6406H129.535C129.527 54.5312 129.289 55.3242 128.82 56.0195C128.352 56.707 127.723 57.25 126.934 57.6484C126.145 58.0391 125.262 58.2344 124.285 58.2344C123.301 58.2344 122.441 58.0703 121.707 57.7422C120.98 57.4141 120.375 56.9609 119.891 56.3828C119.406 55.7969 119.043 55.1172 118.801 54.3438C118.559 53.5625 118.438 52.7266 118.438 51.8359V51.4961C118.438 50.5977 118.559 49.7617 118.801 48.9883C119.043 48.207 119.406 47.5273 119.891 46.9492C120.375 46.3633 120.98 45.9062 121.707 45.5781C122.434 45.25 123.285 45.0859 124.262 45.0859C125.301 45.0859 126.211 45.2852 126.992 45.6836C127.781 46.082 128.398 46.6523 128.844 47.3945C129.297 48.1289 129.527 49 129.535 50.0078H126.359C126.352 49.5859 126.262 49.2031 126.09 48.8594C125.926 48.5156 125.684 48.2422 125.363 48.0391C125.051 47.8281 124.664 47.7227 124.203 47.7227C123.711 47.7227 123.309 47.8281 122.996 48.0391C122.684 48.2422 122.441 48.5234 122.27 48.8828C122.098 49.2344 121.977 49.6367 121.906 50.0898C121.844 50.5352 121.812 51.0039 121.812 51.4961V51.8359C121.812 52.3281 121.844 52.8008 121.906 53.2539C121.969 53.707 122.086 54.1094 122.258 54.4609C122.438 54.8125 122.684 55.0898 122.996 55.293C123.309 55.4961 123.715 55.5977 124.215 55.5977ZM130.953 51.7891V51.543C130.953 50.6133 131.086 49.7578 131.352 48.9766C131.617 48.1875 132.004 47.5039 132.512 46.9258C133.02 46.3477 133.645 45.8984 134.387 45.5781C135.129 45.25 135.98 45.0859 136.941 45.0859C137.902 45.0859 138.758 45.25 139.508 45.5781C140.258 45.8984 140.887 46.3477 141.395 46.9258C141.91 47.5039 142.301 48.1875 142.566 48.9766C142.832 49.7578 142.965 50.6133 142.965 51.543V51.7891C142.965 52.7109 142.832 53.5664 142.566 54.3555C142.301 55.1367 141.91 55.8203 141.395 56.4062C140.887 56.9844 140.262 57.4336 139.52 57.7539C138.777 58.0742 137.926 58.2344 136.965 58.2344C136.004 58.2344 135.148 58.0742 134.398 57.7539C133.656 57.4336 133.027 56.9844 132.512 56.4062C132.004 55.8203 131.617 55.1367 131.352 54.3555C131.086 53.5664 130.953 52.7109 130.953 51.7891ZM134.328 51.543V51.7891C134.328 52.3203 134.375 52.8164 134.469 53.2773C134.562 53.7383 134.711 54.1445 134.914 54.4961C135.125 54.8398 135.398 55.1094 135.734 55.3047C136.07 55.5 136.48 55.5977 136.965 55.5977C137.434 55.5977 137.836 55.5 138.172 55.3047C138.508 55.1094 138.777 54.8398 138.98 54.4961C139.184 54.1445 139.332 53.7383 139.426 53.2773C139.527 52.8164 139.578 52.3203 139.578 51.7891V51.543C139.578 51.0273 139.527 50.543 139.426 50.0898C139.332 49.6289 139.18 49.2227 138.969 48.8711C138.766 48.5117 138.496 48.2305 138.16 48.0273C137.824 47.8242 137.418 47.7227 136.941 47.7227C136.465 47.7227 136.059 47.8242 135.723 48.0273C135.395 48.2305 135.125 48.5117 134.914 48.8711C134.711 49.2227 134.562 49.6289 134.469 50.0898C134.375 50.543 134.328 51.0273 134.328 51.543ZM160.109 53.5352C160.109 53.2305 160.062 52.957 159.969 52.7148C159.883 52.4648 159.719 52.2383 159.477 52.0352C159.234 51.8242 158.895 51.6172 158.457 51.4141C158.02 51.2109 157.453 51 156.758 50.7812C155.984 50.5312 155.25 50.25 154.555 49.9375C153.867 49.625 153.258 49.2617 152.727 48.8477C152.203 48.4258 151.789 47.9375 151.484 47.3828C151.188 46.8281 151.039 46.1836 151.039 45.4492C151.039 44.7383 151.195 44.0938 151.508 43.5156C151.82 42.9297 152.258 42.4297 152.82 42.0156C153.383 41.5938 154.047 41.2695 154.812 41.043C155.586 40.8164 156.434 40.7031 157.355 40.7031C158.613 40.7031 159.711 40.9297 160.648 41.3828C161.586 41.8359 162.312 42.457 162.828 43.2461C163.352 44.0352 163.613 44.9375 163.613 45.9531H160.121C160.121 45.4531 160.016 45.0156 159.805 44.6406C159.602 44.2578 159.289 43.957 158.867 43.7383C158.453 43.5195 157.93 43.4102 157.297 43.4102C156.688 43.4102 156.18 43.5039 155.773 43.6914C155.367 43.8711 155.062 44.1172 154.859 44.4297C154.656 44.7344 154.555 45.0781 154.555 45.4609C154.555 45.75 154.625 46.0117 154.766 46.2461C154.914 46.4805 155.133 46.6992 155.422 46.9023C155.711 47.1055 156.066 47.2969 156.488 47.4766C156.91 47.6562 157.398 47.832 157.953 48.0039C158.883 48.2852 159.699 48.6016 160.402 48.9531C161.113 49.3047 161.707 49.6992 162.184 50.1367C162.66 50.5742 163.02 51.0703 163.262 51.625C163.504 52.1797 163.625 52.8086 163.625 53.5117C163.625 54.2539 163.48 54.918 163.191 55.5039C162.902 56.0898 162.484 56.5859 161.938 56.9922C161.391 57.3984 160.738 57.707 159.98 57.918C159.223 58.1289 158.375 58.2344 157.438 58.2344C156.594 58.2344 155.762 58.125 154.941 57.9062C154.121 57.6797 153.375 57.3398 152.703 56.8867C152.039 56.4336 151.508 55.8555 151.109 55.1523C150.711 54.4492 150.512 53.6172 150.512 52.6562H154.039C154.039 53.1875 154.121 53.6367 154.285 54.0039C154.449 54.3711 154.68 54.668 154.977 54.8945C155.281 55.1211 155.641 55.2852 156.055 55.3867C156.477 55.4883 156.938 55.5391 157.438 55.5391C158.047 55.5391 158.547 55.4531 158.938 55.2812C159.336 55.1094 159.629 54.8711 159.816 54.5664C160.012 54.2617 160.109 53.918 160.109 53.5352ZM165.266 51.7891V51.543C165.266 50.6133 165.398 49.7578 165.664 48.9766C165.93 48.1875 166.316 47.5039 166.824 46.9258C167.332 46.3477 167.957 45.8984 168.699 45.5781C169.441 45.25 170.293 45.0859 171.254 45.0859C172.215 45.0859 173.07 45.25 173.82 45.5781C174.57 45.8984 175.199 46.3477 175.707 46.9258C176.223 47.5039 176.613 48.1875 176.879 48.9766C177.145 49.7578 177.277 50.6133 177.277 51.543V51.7891C177.277 52.7109 177.145 53.5664 176.879 54.3555C176.613 55.1367 176.223 55.8203 175.707 56.4062C175.199 56.9844 174.574 57.4336 173.832 57.7539C173.09 58.0742 172.238 58.2344 171.277 58.2344C170.316 58.2344 169.461 58.0742 168.711 57.7539C167.969 57.4336 167.34 56.9844 166.824 56.4062C166.316 55.8203 165.93 55.1367 165.664 54.3555C165.398 53.5664 165.266 52.7109 165.266 51.7891ZM168.641 51.543V51.7891C168.641 52.3203 168.688 52.8164 168.781 53.2773C168.875 53.7383 169.023 54.1445 169.227 54.4961C169.438 54.8398 169.711 55.1094 170.047 55.3047C170.383 55.5 170.793 55.5977 171.277 55.5977C171.746 55.5977 172.148 55.5 172.484 55.3047C172.82 55.1094 173.09 54.8398 173.293 54.4961C173.496 54.1445 173.645 53.7383 173.738 53.2773C173.84 52.8164 173.891 52.3203 173.891 51.7891V51.543C173.891 51.0273 173.84 50.543 173.738 50.0898C173.645 49.6289 173.492 49.2227 173.281 48.8711C173.078 48.5117 172.809 48.2305 172.473 48.0273C172.137 47.8242 171.73 47.7227 171.254 47.7227C170.777 47.7227 170.371 47.8242 170.035 48.0273C169.707 48.2305 169.438 48.5117 169.227 48.8711C169.023 49.2227 168.875 49.6289 168.781 50.0898C168.688 50.543 168.641 51.0273 168.641 51.543ZM182.727 48.0859V58H179.352V45.3203H182.527L182.727 48.0859ZM186.547 45.2383L186.488 48.3672C186.324 48.3438 186.125 48.3242 185.891 48.3086C185.664 48.2852 185.457 48.2734 185.27 48.2734C184.793 48.2734 184.379 48.3359 184.027 48.4609C183.684 48.5781 183.395 48.7539 183.16 48.9883C182.934 49.2227 182.762 49.5078 182.645 49.8438C182.535 50.1797 182.473 50.5625 182.457 50.9922L181.777 50.7812C181.777 49.9609 181.859 49.207 182.023 48.5195C182.188 47.8242 182.426 47.2188 182.738 46.7031C183.059 46.1875 183.449 45.7891 183.91 45.5078C184.371 45.2266 184.898 45.0859 185.492 45.0859C185.68 45.0859 185.871 45.1016 186.066 45.1328C186.262 45.1562 186.422 45.1914 186.547 45.2383ZM194.938 45.3203V47.7109H187.555V45.3203H194.938ZM189.383 42.1914H192.758V54.1797C192.758 54.5469 192.805 54.8281 192.898 55.0234C193 55.2188 193.148 55.3555 193.344 55.4336C193.539 55.5039 193.785 55.5391 194.082 55.5391C194.293 55.5391 194.48 55.5312 194.645 55.5156C194.816 55.4922 194.961 55.4688 195.078 55.4453L195.09 57.9297C194.801 58.0234 194.488 58.0977 194.152 58.1523C193.816 58.207 193.445 58.2344 193.039 58.2344C192.297 58.2344 191.648 58.1133 191.094 57.8711C190.547 57.6211 190.125 57.2227 189.828 56.6758C189.531 56.1289 189.383 55.4102 189.383 54.5195V42.1914Z" fill="#888888"/>
<path d="M109.93 86.0078V118H102.217V86.0078H109.93ZM119.554 86.0078V91.9624H92.813V86.0078H119.554ZM132.012 118.439C130.079 118.439 128.35 118.139 126.827 117.539C125.303 116.923 124.014 116.081 122.959 115.012C121.919 113.942 121.121 112.712 120.564 111.32C120.022 109.929 119.751 108.457 119.751 106.904V106.069C119.751 104.326 119.993 102.714 120.477 101.235C120.96 99.7407 121.678 98.437 122.63 97.3237C123.582 96.2104 124.776 95.3462 126.211 94.731C127.647 94.1011 129.317 93.7861 131.221 93.7861C132.906 93.7861 134.415 94.0571 135.748 94.5991C137.081 95.1411 138.208 95.9175 139.131 96.9282C140.069 97.939 140.779 99.1621 141.263 100.598C141.761 102.033 142.01 103.645 142.01 105.432V108.442H122.586V103.806H134.781V103.234C134.795 102.443 134.656 101.77 134.363 101.213C134.085 100.656 133.675 100.231 133.133 99.9385C132.591 99.6455 131.932 99.499 131.155 99.499C130.35 99.499 129.683 99.6748 129.156 100.026C128.643 100.378 128.24 100.861 127.947 101.477C127.669 102.077 127.471 102.773 127.354 103.564C127.237 104.355 127.178 105.19 127.178 106.069V106.904C127.178 107.783 127.295 108.581 127.53 109.299C127.779 110.017 128.13 110.632 128.584 111.145C129.053 111.643 129.61 112.031 130.254 112.309C130.914 112.587 131.661 112.727 132.496 112.727C133.506 112.727 134.502 112.536 135.484 112.155C136.465 111.774 137.308 111.145 138.011 110.266L141.373 114.265C140.889 114.953 140.201 115.62 139.307 116.264C138.428 116.909 137.374 117.436 136.143 117.846C134.913 118.242 133.536 118.439 132.012 118.439ZM155.062 112.727C155.75 112.727 156.336 112.602 156.819 112.353C157.317 112.089 157.691 111.723 157.94 111.254C158.204 110.771 158.328 110.192 158.313 109.519H165.279C165.293 111.306 164.854 112.873 163.96 114.221C163.082 115.554 161.88 116.594 160.357 117.341C158.848 118.073 157.142 118.439 155.237 118.439C153.377 118.439 151.751 118.139 150.359 117.539C148.968 116.923 147.803 116.074 146.866 114.99C145.943 113.891 145.247 112.609 144.778 111.145C144.324 109.68 144.097 108.09 144.097 106.376V105.871C144.097 104.157 144.324 102.568 144.778 101.103C145.247 99.6235 145.943 98.3418 146.866 97.2578C147.803 96.1592 148.96 95.3096 150.337 94.709C151.729 94.0938 153.348 93.7861 155.193 93.7861C157.171 93.7861 158.914 94.1597 160.423 94.9067C161.946 95.6538 163.14 96.7378 164.004 98.1587C164.869 99.5796 165.293 101.301 165.279 103.322H158.313C158.328 102.604 158.218 101.96 157.984 101.389C157.75 100.817 157.383 100.363 156.885 100.026C156.402 99.6748 155.779 99.499 155.018 99.499C154.256 99.499 153.641 99.6675 153.172 100.004C152.703 100.341 152.344 100.81 152.095 101.411C151.861 101.997 151.7 102.67 151.612 103.432C151.539 104.194 151.502 105.007 151.502 105.871V106.376C151.502 107.255 151.539 108.083 151.612 108.859C151.7 109.621 151.868 110.295 152.117 110.881C152.366 111.452 152.725 111.906 153.194 112.243C153.663 112.565 154.285 112.727 155.062 112.727ZM175.694 84.25V118H168.289V84.25H175.694ZM174.815 105.3L173.079 105.344C173.079 103.674 173.284 102.136 173.694 100.729C174.104 99.3232 174.69 98.1001 175.452 97.0601C176.214 96.02 177.129 95.2144 178.199 94.6431C179.268 94.0718 180.455 93.7861 181.758 93.7861C182.93 93.7861 184 93.9546 184.966 94.2915C185.948 94.6284 186.79 95.1704 187.493 95.9175C188.211 96.6646 188.76 97.6387 189.141 98.8398C189.537 100.041 189.734 101.506 189.734 103.234V118H182.286V103.19C182.286 102.224 182.146 101.477 181.868 100.949C181.604 100.407 181.224 100.034 180.726 99.8286C180.228 99.6089 179.62 99.499 178.902 99.499C178.038 99.499 177.334 99.6455 176.792 99.9385C176.25 100.231 175.833 100.642 175.54 101.169C175.262 101.682 175.071 102.29 174.969 102.993C174.866 103.696 174.815 104.465 174.815 105.3ZM221.88 109.497C221.88 108.999 221.807 108.552 221.661 108.156C221.514 107.746 221.243 107.365 220.848 107.014C220.452 106.662 219.881 106.311 219.134 105.959C218.401 105.593 217.435 105.212 216.233 104.816C214.827 104.348 213.472 103.82 212.168 103.234C210.865 102.634 209.7 101.938 208.675 101.147C207.649 100.341 206.836 99.4038 206.236 98.3345C205.635 97.2505 205.335 95.9907 205.335 94.5552C205.335 93.1782 205.643 91.9404 206.258 90.8418C206.873 89.7285 207.73 88.7837 208.829 88.0073C209.942 87.2163 211.246 86.6157 212.74 86.2056C214.234 85.7808 215.867 85.5684 217.64 85.5684C219.983 85.5684 222.049 85.9785 223.836 86.7988C225.638 87.6045 227.044 88.7544 228.055 90.2485C229.08 91.728 229.593 93.4785 229.593 95.5H221.924C221.924 94.6943 221.756 93.9839 221.419 93.3687C221.097 92.7534 220.606 92.27 219.947 91.9185C219.288 91.5669 218.46 91.3911 217.464 91.3911C216.497 91.3911 215.684 91.5376 215.025 91.8306C214.366 92.1235 213.868 92.519 213.531 93.0171C213.194 93.5005 213.025 94.0352 213.025 94.6211C213.025 95.1045 213.157 95.5439 213.421 95.9395C213.699 96.3203 214.087 96.6792 214.585 97.0161C215.098 97.353 215.713 97.6753 216.431 97.9829C217.164 98.2905 217.984 98.5908 218.892 98.8838C220.591 99.4258 222.1 100.034 223.418 100.708C224.751 101.367 225.872 102.121 226.78 102.971C227.703 103.806 228.399 104.758 228.868 105.827C229.351 106.896 229.593 108.105 229.593 109.453C229.593 110.888 229.314 112.163 228.758 113.276C228.201 114.389 227.403 115.334 226.363 116.11C225.323 116.872 224.078 117.451 222.627 117.846C221.177 118.242 219.559 118.439 217.771 118.439C216.131 118.439 214.512 118.234 212.916 117.824C211.333 117.399 209.898 116.755 208.609 115.891C207.32 115.012 206.287 113.891 205.511 112.529C204.749 111.152 204.368 109.519 204.368 107.629H212.103C212.103 108.566 212.227 109.357 212.476 110.002C212.725 110.646 213.091 111.167 213.575 111.562C214.058 111.943 214.651 112.221 215.354 112.397C216.058 112.558 216.863 112.639 217.771 112.639C218.753 112.639 219.544 112.5 220.145 112.221C220.745 111.928 221.185 111.547 221.463 111.079C221.741 110.595 221.88 110.068 221.88 109.497ZM245.743 94.2256V99.3672H231.417V94.2256H245.743ZM234.427 88.3149H241.832V110.244C241.832 110.874 241.905 111.364 242.051 111.716C242.198 112.053 242.447 112.294 242.798 112.441C243.165 112.573 243.648 112.639 244.249 112.639C244.673 112.639 245.025 112.631 245.303 112.617C245.582 112.587 245.845 112.551 246.094 112.507V117.802C245.464 118.007 244.805 118.161 244.117 118.264C243.428 118.381 242.696 118.439 241.919 118.439C240.337 118.439 238.982 118.19 237.854 117.692C236.741 117.194 235.892 116.411 235.306 115.341C234.72 114.272 234.427 112.88 234.427 111.167V88.3149ZM261.036 112.023V102.224C261.036 101.55 260.94 100.971 260.75 100.488C260.56 100.004 260.259 99.6309 259.849 99.3672C259.439 99.0889 258.89 98.9497 258.201 98.9497C257.645 98.9497 257.168 99.0449 256.773 99.2354C256.377 99.4258 256.077 99.7114 255.872 100.092C255.667 100.473 255.564 100.957 255.564 101.542H248.16C248.16 100.444 248.401 99.4258 248.885 98.4883C249.383 97.5361 250.086 96.7085 250.994 96.0054C251.917 95.3022 253.016 94.7603 254.29 94.3794C255.579 93.9839 257.015 93.7861 258.597 93.7861C260.486 93.7861 262.171 94.1011 263.65 94.731C265.145 95.3608 266.324 96.3057 267.188 97.5654C268.052 98.8105 268.484 100.378 268.484 102.268V112.001C268.484 113.554 268.572 114.733 268.748 115.539C268.924 116.33 269.173 117.026 269.495 117.626V118H262.068C261.717 117.268 261.453 116.374 261.277 115.319C261.116 114.25 261.036 113.151 261.036 112.023ZM261.937 103.476L261.98 107.431H258.707C258.018 107.431 257.432 107.526 256.949 107.717C256.48 107.907 256.099 108.171 255.806 108.508C255.528 108.83 255.323 109.196 255.191 109.606C255.074 110.017 255.015 110.449 255.015 110.903C255.015 111.342 255.118 111.738 255.323 112.089C255.542 112.426 255.835 112.69 256.202 112.88C256.568 113.071 256.978 113.166 257.432 113.166C258.252 113.166 258.948 113.012 259.52 112.705C260.105 112.382 260.552 111.994 260.86 111.54C261.167 111.086 261.321 110.661 261.321 110.266L262.947 113.298C262.654 113.884 262.317 114.477 261.937 115.078C261.57 115.678 261.109 116.235 260.552 116.748C260.01 117.246 259.344 117.656 258.553 117.978C257.762 118.286 256.802 118.439 255.674 118.439C254.209 118.439 252.862 118.139 251.631 117.539C250.416 116.938 249.441 116.103 248.709 115.034C247.977 113.95 247.61 112.705 247.61 111.298C247.61 110.068 247.83 108.969 248.27 108.002C248.724 107.036 249.405 106.215 250.313 105.542C251.221 104.868 252.378 104.355 253.785 104.003C255.191 103.652 256.846 103.476 258.75 103.476H261.937ZM282.635 112.727C283.323 112.727 283.909 112.602 284.393 112.353C284.891 112.089 285.264 111.723 285.513 111.254C285.777 110.771 285.901 110.192 285.887 109.519H292.852C292.867 111.306 292.427 112.873 291.534 114.221C290.655 115.554 289.454 116.594 287.93 117.341C286.421 118.073 284.715 118.439 282.811 118.439C280.95 118.439 279.324 118.139 277.933 117.539C276.541 116.923 275.376 116.074 274.439 114.99C273.516 113.891 272.82 112.609 272.352 111.145C271.897 109.68 271.67 108.09 271.67 106.376V105.871C271.67 104.157 271.897 102.568 272.352 101.103C272.82 99.6235 273.516 98.3418 274.439 97.2578C275.376 96.1592 276.534 95.3096 277.911 94.709C279.302 94.0938 280.921 93.7861 282.767 93.7861C284.744 93.7861 286.487 94.1597 287.996 94.9067C289.52 95.6538 290.713 96.7378 291.578 98.1587C292.442 99.5796 292.867 101.301 292.852 103.322H285.887C285.901 102.604 285.792 101.96 285.557 101.389C285.323 100.817 284.957 100.363 284.458 100.026C283.975 99.6748 283.353 99.499 282.591 99.499C281.829 99.499 281.214 99.6675 280.745 100.004C280.276 100.341 279.917 100.81 279.668 101.411C279.434 101.997 279.273 102.67 279.185 103.432C279.112 104.194 279.075 105.007 279.075 105.871V106.376C279.075 107.255 279.112 108.083 279.185 108.859C279.273 109.621 279.441 110.295 279.69 110.881C279.939 111.452 280.298 111.906 280.767 112.243C281.236 112.565 281.858 112.727 282.635 112.727ZM303.487 84.228V118H296.082V84.228H303.487ZM318.692 94.2256L308.365 106.333L302.959 111.738L299.729 107.036L304.234 101.169L309.815 94.2256H318.692ZM310.76 118L304.41 107.167L309.881 103.278L319.241 118H310.76Z" fill="#424241"/>
<path d="M1363 15C1363 6.71573 1356.28 0 1348 0H1134V167H1348C1356.28 167 1363 160.284 1363 152V15Z" fill="#5BB259"/>
<path fill-rule="evenodd" clip-rule="evenodd" d="M1218.5 55C1218.37 55 1218.24 55.0527 1218.15 55.1464C1218.05 55.2402 1218 55.3674 1218 55.5V111.5C1218 111.633 1218.05 111.76 1218.15 111.854C1218.24 111.947 1218.37 112 1218.5 112H1278C1278.13 112 1278.26 111.947 1278.35 111.854C1278.45 111.76 1278.5 111.633 1278.5 111.5V66C1278.5 65.8674 1278.45 65.7402 1278.35 65.6464C1278.26 65.5527 1278.13 65.5 1278 65.5H1248.25C1247.36 65.5 1246.52 65.1045 1245.95 64.4206L1238.09 55H1218.5ZM1213.9 50.9038C1215.12 49.6848 1216.78 49 1218.5 49H1239.5C1240.39 49 1241.23 49.3955 1241.8 50.0794L1249.66 59.5H1278C1279.72 59.5 1281.38 60.1848 1282.6 61.4038C1283.82 62.6228 1284.5 64.2761 1284.5 66V111.5C1284.5 113.224 1283.82 114.877 1282.6 116.096C1281.38 117.315 1279.72 118 1278 118H1218.5C1216.78 118 1215.12 117.315 1213.9 116.096C1212.68 114.877 1212 113.224 1212 111.5V55.5C1212 53.7761 1212.68 52.1228 1213.9 50.9038Z" fill="white"/>
<path fill-rule="evenodd" clip-rule="evenodd" d="M1243.72 77.5251C1245.09 78.892 1245.09 81.108 1243.72 82.4749L1237.45 88.75L1243.72 95.0251C1245.09 96.392 1245.09 98.608 1243.72 99.9749C1242.36 101.342 1240.14 101.342 1238.78 99.9749L1230.03 91.2249C1228.66 89.858 1228.66 87.642 1230.03 86.2751L1238.78 77.5251C1240.14 76.1583 1242.36 76.1583 1243.72 77.5251Z" fill="white"/>
<path fill-rule="evenodd" clip-rule="evenodd" d="M1252.03 99.9749C1250.66 98.608 1250.66 96.392 1252.03 95.0251L1258.3 88.75L1252.03 82.4749C1250.66 81.108 1250.66 78.892 1252.03 77.5251C1253.39 76.1583 1255.61 76.1583 1256.97 77.5251L1265.72 86.2751C1267.09 87.642 1267.09 89.858 1265.72 91.2249L1256.97 99.9749C1255.61 101.342 1253.39 101.342 1252.03 99.9749Z" fill="white"/>
</svg>
