<svg width="1363" height="167" viewBox="0 0 1363 167" fill="none" xmlns="http://www.w3.org/2000/svg">
<rect width="1363" height="167" rx="15" fill="#F0F0F0"/>
<path d="M0 15C0 6.71573 6.71573 0 15 0H37V167H15C6.71573 167 0 160.284 0 152V15Z" fill="#424241"/>
<path d="M100.906 50.9219L93.3945 48.2383V45.0859L103.602 49.375V51.6367L100.906 50.9219ZM93.3945 53.1719L100.918 50.4297L103.602 49.7852V52.0352L93.3945 56.3242V53.1719ZM117.371 55.2578V58H108.289V55.2578H117.371ZM109.438 40.9375V58H105.922V40.9375H109.438ZM116.188 47.8867V50.5586H108.289V47.8867H116.188ZM117.359 40.9375V43.6914H108.289V40.9375H117.359ZM124.215 55.5977C124.629 55.5977 124.996 55.5195 125.316 55.3633C125.637 55.1992 125.887 54.9727 126.066 54.6836C126.254 54.3867 126.352 54.0391 126.359 53.6406H129.535C129.527 54.5312 129.289 55.3242 128.82 56.0195C128.352 56.707 127.723 57.25 126.934 57.6484C126.145 58.0391 125.262 58.2344 124.285 58.2344C123.301 58.2344 122.441 58.0703 121.707 57.7422C120.98 57.4141 120.375 56.9609 119.891 56.3828C119.406 55.7969 119.043 55.1172 118.801 54.3438C118.559 53.5625 118.438 52.7266 118.438 51.8359V51.4961C118.438 50.5977 118.559 49.7617 118.801 48.9883C119.043 48.207 119.406 47.5273 119.891 46.9492C120.375 46.3633 120.98 45.9062 121.707 45.5781C122.434 45.25 123.285 45.0859 124.262 45.0859C125.301 45.0859 126.211 45.2852 126.992 45.6836C127.781 46.082 128.398 46.6523 128.844 47.3945C129.297 48.1289 129.527 49 129.535 50.0078H126.359C126.352 49.5859 126.262 49.2031 126.09 48.8594C125.926 48.5156 125.684 48.2422 125.363 48.0391C125.051 47.8281 124.664 47.7227 124.203 47.7227C123.711 47.7227 123.309 47.8281 122.996 48.0391C122.684 48.2422 122.441 48.5234 122.27 48.8828C122.098 49.2344 121.977 49.6367 121.906 50.0898C121.844 50.5352 121.812 51.0039 121.812 51.4961V51.8359C121.812 52.3281 121.844 52.8008 121.906 53.2539C121.969 53.707 122.086 54.1094 122.258 54.4609C122.438 54.8125 122.684 55.0898 122.996 55.293C123.309 55.4961 123.715 55.5977 124.215 55.5977ZM130.953 51.7891V51.543C130.953 50.6133 131.086 49.7578 131.352 48.9766C131.617 48.1875 132.004 47.5039 132.512 46.9258C133.02 46.3477 133.645 45.8984 134.387 45.5781C135.129 45.25 135.98 45.0859 136.941 45.0859C137.902 45.0859 138.758 45.25 139.508 45.5781C140.258 45.8984 140.887 46.3477 141.395 46.9258C141.91 47.5039 142.301 48.1875 142.566 48.9766C142.832 49.7578 142.965 50.6133 142.965 51.543V51.7891C142.965 52.7109 142.832 53.5664 142.566 54.3555C142.301 55.1367 141.91 55.8203 141.395 56.4062C140.887 56.9844 140.262 57.4336 139.52 57.7539C138.777 58.0742 137.926 58.2344 136.965 58.2344C136.004 58.2344 135.148 58.0742 134.398 57.7539C133.656 57.4336 133.027 56.9844 132.512 56.4062C132.004 55.8203 131.617 55.1367 131.352 54.3555C131.086 53.5664 130.953 52.7109 130.953 51.7891ZM134.328 51.543V51.7891C134.328 52.3203 134.375 52.8164 134.469 53.2773C134.562 53.7383 134.711 54.1445 134.914 54.4961C135.125 54.8398 135.398 55.1094 135.734 55.3047C136.07 55.5 136.48 55.5977 136.965 55.5977C137.434 55.5977 137.836 55.5 138.172 55.3047C138.508 55.1094 138.777 54.8398 138.98 54.4961C139.184 54.1445 139.332 53.7383 139.426 53.2773C139.527 52.8164 139.578 52.3203 139.578 51.7891V51.543C139.578 51.0273 139.527 50.543 139.426 50.0898C139.332 49.6289 139.18 49.2227 138.969 48.8711C138.766 48.5117 138.496 48.2305 138.16 48.0273C137.824 47.8242 137.418 47.7227 136.941 47.7227C136.465 47.7227 136.059 47.8242 135.723 48.0273C135.395 48.2305 135.125 48.5117 134.914 48.8711C134.711 49.2227 134.562 49.6289 134.469 50.0898C134.375 50.543 134.328 51.0273 134.328 51.543ZM160.109 53.5352C160.109 53.2305 160.062 52.957 159.969 52.7148C159.883 52.4648 159.719 52.2383 159.477 52.0352C159.234 51.8242 158.895 51.6172 158.457 51.4141C158.02 51.2109 157.453 51 156.758 50.7812C155.984 50.5312 155.25 50.25 154.555 49.9375C153.867 49.625 153.258 49.2617 152.727 48.8477C152.203 48.4258 151.789 47.9375 151.484 47.3828C151.188 46.8281 151.039 46.1836 151.039 45.4492C151.039 44.7383 151.195 44.0938 151.508 43.5156C151.82 42.9297 152.258 42.4297 152.82 42.0156C153.383 41.5938 154.047 41.2695 154.812 41.043C155.586 40.8164 156.434 40.7031 157.355 40.7031C158.613 40.7031 159.711 40.9297 160.648 41.3828C161.586 41.8359 162.312 42.457 162.828 43.2461C163.352 44.0352 163.613 44.9375 163.613 45.9531H160.121C160.121 45.4531 160.016 45.0156 159.805 44.6406C159.602 44.2578 159.289 43.957 158.867 43.7383C158.453 43.5195 157.93 43.4102 157.297 43.4102C156.688 43.4102 156.18 43.5039 155.773 43.6914C155.367 43.8711 155.062 44.1172 154.859 44.4297C154.656 44.7344 154.555 45.0781 154.555 45.4609C154.555 45.75 154.625 46.0117 154.766 46.2461C154.914 46.4805 155.133 46.6992 155.422 46.9023C155.711 47.1055 156.066 47.2969 156.488 47.4766C156.91 47.6562 157.398 47.832 157.953 48.0039C158.883 48.2852 159.699 48.6016 160.402 48.9531C161.113 49.3047 161.707 49.6992 162.184 50.1367C162.66 50.5742 163.02 51.0703 163.262 51.625C163.504 52.1797 163.625 52.8086 163.625 53.5117C163.625 54.2539 163.48 54.918 163.191 55.5039C162.902 56.0898 162.484 56.5859 161.938 56.9922C161.391 57.3984 160.738 57.707 159.98 57.918C159.223 58.1289 158.375 58.2344 157.438 58.2344C156.594 58.2344 155.762 58.125 154.941 57.9062C154.121 57.6797 153.375 57.3398 152.703 56.8867C152.039 56.4336 151.508 55.8555 151.109 55.1523C150.711 54.4492 150.512 53.6172 150.512 52.6562H154.039C154.039 53.1875 154.121 53.6367 154.285 54.0039C154.449 54.3711 154.68 54.668 154.977 54.8945C155.281 55.1211 155.641 55.2852 156.055 55.3867C156.477 55.4883 156.938 55.5391 157.438 55.5391C158.047 55.5391 158.547 55.4531 158.938 55.2812C159.336 55.1094 159.629 54.8711 159.816 54.5664C160.012 54.2617 160.109 53.918 160.109 53.5352ZM165.266 51.7891V51.543C165.266 50.6133 165.398 49.7578 165.664 48.9766C165.93 48.1875 166.316 47.5039 166.824 46.9258C167.332 46.3477 167.957 45.8984 168.699 45.5781C169.441 45.25 170.293 45.0859 171.254 45.0859C172.215 45.0859 173.07 45.25 173.82 45.5781C174.57 45.8984 175.199 46.3477 175.707 46.9258C176.223 47.5039 176.613 48.1875 176.879 48.9766C177.145 49.7578 177.277 50.6133 177.277 51.543V51.7891C177.277 52.7109 177.145 53.5664 176.879 54.3555C176.613 55.1367 176.223 55.8203 175.707 56.4062C175.199 56.9844 174.574 57.4336 173.832 57.7539C173.09 58.0742 172.238 58.2344 171.277 58.2344C170.316 58.2344 169.461 58.0742 168.711 57.7539C167.969 57.4336 167.34 56.9844 166.824 56.4062C166.316 55.8203 165.93 55.1367 165.664 54.3555C165.398 53.5664 165.266 52.7109 165.266 51.7891ZM168.641 51.543V51.7891C168.641 52.3203 168.688 52.8164 168.781 53.2773C168.875 53.7383 169.023 54.1445 169.227 54.4961C169.438 54.8398 169.711 55.1094 170.047 55.3047C170.383 55.5 170.793 55.5977 171.277 55.5977C171.746 55.5977 172.148 55.5 172.484 55.3047C172.82 55.1094 173.09 54.8398 173.293 54.4961C173.496 54.1445 173.645 53.7383 173.738 53.2773C173.84 52.8164 173.891 52.3203 173.891 51.7891V51.543C173.891 51.0273 173.84 50.543 173.738 50.0898C173.645 49.6289 173.492 49.2227 173.281 48.8711C173.078 48.5117 172.809 48.2305 172.473 48.0273C172.137 47.8242 171.73 47.7227 171.254 47.7227C170.777 47.7227 170.371 47.8242 170.035 48.0273C169.707 48.2305 169.438 48.5117 169.227 48.8711C169.023 49.2227 168.875 49.6289 168.781 50.0898C168.688 50.543 168.641 51.0273 168.641 51.543ZM182.727 48.0859V58H179.352V45.3203H182.527L182.727 48.0859ZM186.547 45.2383L186.488 48.3672C186.324 48.3438 186.125 48.3242 185.891 48.3086C185.664 48.2852 185.457 48.2734 185.27 48.2734C184.793 48.2734 184.379 48.3359 184.027 48.4609C183.684 48.5781 183.395 48.7539 183.16 48.9883C182.934 49.2227 182.762 49.5078 182.645 49.8438C182.535 50.1797 182.473 50.5625 182.457 50.9922L181.777 50.7812C181.777 49.9609 181.859 49.207 182.023 48.5195C182.188 47.8242 182.426 47.2188 182.738 46.7031C183.059 46.1875 183.449 45.7891 183.91 45.5078C184.371 45.2266 184.898 45.0859 185.492 45.0859C185.68 45.0859 185.871 45.1016 186.066 45.1328C186.262 45.1562 186.422 45.1914 186.547 45.2383ZM194.938 45.3203V47.7109H187.555V45.3203H194.938ZM189.383 42.1914H192.758V54.1797C192.758 54.5469 192.805 54.8281 192.898 55.0234C193 55.2188 193.148 55.3555 193.344 55.4336C193.539 55.5039 193.785 55.5391 194.082 55.5391C194.293 55.5391 194.48 55.5312 194.645 55.5156C194.816 55.4922 194.961 55.4688 195.078 55.4453L195.09 57.9297C194.801 58.0234 194.488 58.0977 194.152 58.1523C193.816 58.207 193.445 58.2344 193.039 58.2344C192.297 58.2344 191.648 58.1133 191.094 57.8711C190.547 57.6211 190.125 57.2227 189.828 56.6758C189.531 56.1289 189.383 55.4102 189.383 54.5195V42.1914Z" fill="#888888"/>
<path d="M101.822 115.1L108.194 86.0078H111.995L114.061 88.4907L107.271 118H103.074L101.822 115.1ZM100.13 86.0078L105.513 115.319L104.129 118H99.2729L92.4834 86.0078H100.13ZM117.554 115.166L122.894 86.0078H130.518L123.729 118H118.895L117.554 115.166ZM114.742 86.0078L121.268 115.275L119.949 118H115.752L108.809 88.4468L110.962 86.0078H114.742ZM141.021 94.2256V118H133.594V94.2256H141.021ZM133.155 88.0952C133.155 87.0405 133.536 86.1763 134.297 85.5024C135.059 84.8286 136.048 84.4917 137.264 84.4917C138.479 84.4917 139.468 84.8286 140.23 85.5024C140.992 86.1763 141.373 87.0405 141.373 88.0952C141.373 89.1499 140.992 90.0142 140.23 90.688C139.468 91.3618 138.479 91.6987 137.264 91.6987C136.048 91.6987 135.059 91.3618 134.297 90.688C133.536 90.0142 133.155 89.1499 133.155 88.0952ZM153.062 100.114V118H145.657V94.2256H152.579L153.062 100.114ZM160.093 94.0498L159.961 100.927C159.668 100.898 159.273 100.861 158.775 100.817C158.277 100.773 157.859 100.751 157.522 100.751C156.658 100.751 155.911 100.854 155.281 101.059C154.666 101.25 154.153 101.542 153.743 101.938C153.348 102.319 153.055 102.802 152.864 103.388C152.688 103.974 152.608 104.655 152.623 105.432L151.282 104.553C151.282 102.956 151.436 101.506 151.744 100.202C152.066 98.8838 152.52 97.7485 153.106 96.7964C153.692 95.8296 154.402 95.0898 155.237 94.5771C156.072 94.0498 157.01 93.7861 158.05 93.7861C158.416 93.7861 158.775 93.8081 159.126 93.8521C159.493 93.896 159.815 93.9619 160.093 94.0498ZM173.716 118.439C171.783 118.439 170.054 118.139 168.531 117.539C167.007 116.923 165.718 116.081 164.664 115.012C163.624 113.942 162.825 112.712 162.269 111.32C161.727 109.929 161.456 108.457 161.456 106.904V106.069C161.456 104.326 161.697 102.714 162.181 101.235C162.664 99.7407 163.382 98.437 164.334 97.3237C165.286 96.2104 166.48 95.3462 167.916 94.731C169.351 94.1011 171.021 93.7861 172.925 93.7861C174.61 93.7861 176.119 94.0571 177.452 94.5991C178.785 95.1411 179.913 95.9175 180.835 96.9282C181.773 97.939 182.483 99.1621 182.967 100.598C183.465 102.033 183.714 103.645 183.714 105.432V108.442H164.29V103.806H176.485V103.234C176.5 102.443 176.36 101.77 176.067 101.213C175.789 100.656 175.379 100.231 174.837 99.9385C174.295 99.6455 173.636 99.499 172.859 99.499C172.054 99.499 171.387 99.6748 170.86 100.026C170.347 100.378 169.944 100.861 169.651 101.477C169.373 102.077 169.175 102.773 169.058 103.564C168.941 104.355 168.882 105.19 168.882 106.069V106.904C168.882 107.783 169 108.581 169.234 109.299C169.483 110.017 169.834 110.632 170.289 111.145C170.757 111.643 171.314 112.031 171.958 112.309C172.618 112.587 173.365 112.727 174.2 112.727C175.21 112.727 176.207 112.536 177.188 112.155C178.169 111.774 179.012 111.145 179.715 110.266L183.077 114.265C182.593 114.953 181.905 115.62 181.011 116.264C180.132 116.909 179.078 117.436 177.847 117.846C176.617 118.242 175.24 118.439 173.716 118.439ZM195.799 118H188.35V92.292C188.35 90.4463 188.724 88.8936 189.471 87.6338C190.218 86.374 191.272 85.4219 192.635 84.7773C193.997 84.1182 195.608 83.7886 197.469 83.7886C198.113 83.7886 198.721 83.8325 199.292 83.9204C199.864 84.0083 200.42 84.1182 200.962 84.25L200.984 89.6992C200.721 89.626 200.45 89.5747 200.171 89.5454C199.893 89.5161 199.549 89.5015 199.139 89.5015C198.421 89.5015 197.813 89.6113 197.315 89.8311C196.817 90.0361 196.436 90.3511 196.172 90.7759C195.923 91.186 195.799 91.6914 195.799 92.292V118ZM200.413 94.2256V99.3672H184.922V94.2256H200.413ZM210.542 100.114V118H203.138V94.2256H210.059L210.542 100.114ZM217.574 94.0498L217.442 100.927C217.149 100.898 216.753 100.861 216.255 100.817C215.757 100.773 215.34 100.751 215.003 100.751C214.139 100.751 213.392 100.854 212.762 101.059C212.146 101.25 211.634 101.542 211.224 101.938C210.828 102.319 210.535 102.802 210.345 103.388C210.169 103.974 210.088 104.655 210.103 105.432L208.763 104.553C208.763 102.956 208.917 101.506 209.224 100.202C209.546 98.8838 210 97.7485 210.586 96.7964C211.172 95.8296 211.883 95.0898 212.718 94.5771C213.553 94.0498 214.49 93.7861 215.53 93.7861C215.896 93.7861 216.255 93.8081 216.607 93.8521C216.973 93.896 217.295 93.9619 217.574 94.0498ZM231.812 112.023V102.224C231.812 101.55 231.717 100.971 231.526 100.488C231.336 100.004 231.036 99.6309 230.625 99.3672C230.215 99.0889 229.666 98.9497 228.978 98.9497C228.421 98.9497 227.945 99.0449 227.549 99.2354C227.154 99.4258 226.854 99.7114 226.648 100.092C226.443 100.473 226.341 100.957 226.341 101.542H218.936C218.936 100.444 219.178 99.4258 219.661 98.4883C220.159 97.5361 220.862 96.7085 221.771 96.0054C222.693 95.3022 223.792 94.7603 225.066 94.3794C226.355 93.9839 227.791 93.7861 229.373 93.7861C231.263 93.7861 232.947 94.1011 234.427 94.731C235.921 95.3608 237.1 96.3057 237.964 97.5654C238.829 98.8105 239.261 100.378 239.261 102.268V112.001C239.261 113.554 239.349 114.733 239.524 115.539C239.7 116.33 239.949 117.026 240.271 117.626V118H232.845C232.493 117.268 232.229 116.374 232.054 115.319C231.893 114.25 231.812 113.151 231.812 112.023ZM232.713 103.476L232.757 107.431H229.483C228.794 107.431 228.208 107.526 227.725 107.717C227.256 107.907 226.875 108.171 226.583 108.508C226.304 108.83 226.099 109.196 225.967 109.606C225.85 110.017 225.792 110.449 225.792 110.903C225.792 111.342 225.894 111.738 226.099 112.089C226.319 112.426 226.612 112.69 226.978 112.88C227.344 113.071 227.754 113.166 228.208 113.166C229.029 113.166 229.725 113.012 230.296 112.705C230.882 112.382 231.329 111.994 231.636 111.54C231.944 111.086 232.098 110.661 232.098 110.266L233.724 113.298C233.431 113.884 233.094 114.477 232.713 115.078C232.347 115.678 231.885 116.235 231.329 116.748C230.787 117.246 230.12 117.656 229.329 117.978C228.538 118.286 227.579 118.439 226.451 118.439C224.986 118.439 223.638 118.139 222.408 117.539C221.192 116.938 220.218 116.103 219.485 115.034C218.753 113.95 218.387 112.705 218.387 111.298C218.387 110.068 218.606 108.969 219.046 108.002C219.5 107.036 220.181 106.215 221.089 105.542C221.998 104.868 223.155 104.355 224.561 104.003C225.967 103.652 227.623 103.476 229.527 103.476H232.713ZM250.84 99.2573V118H243.436V94.2256H250.379L250.84 99.2573ZM249.939 105.3L248.248 105.344C248.248 103.674 248.445 102.136 248.841 100.729C249.236 99.3232 249.822 98.1001 250.599 97.0601C251.375 96.02 252.327 95.2144 253.455 94.6431C254.598 94.0718 255.916 93.7861 257.41 93.7861C258.45 93.7861 259.395 93.9473 260.245 94.2695C261.094 94.5771 261.827 95.0679 262.442 95.7417C263.057 96.4009 263.526 97.2651 263.848 98.3345C264.185 99.3892 264.354 100.656 264.354 102.136V118H256.949V103.081C256.949 102.07 256.832 101.308 256.597 100.795C256.377 100.283 256.055 99.9385 255.63 99.7627C255.206 99.5869 254.686 99.499 254.07 99.499C253.426 99.499 252.847 99.6455 252.334 99.9385C251.822 100.231 251.382 100.642 251.016 101.169C250.665 101.682 250.394 102.29 250.203 102.993C250.027 103.696 249.939 104.465 249.939 105.3ZM263.519 105.3L261.453 105.344C261.453 103.674 261.636 102.136 262.002 100.729C262.383 99.3232 262.947 98.1001 263.694 97.0601C264.456 96.02 265.401 95.2144 266.529 94.6431C267.657 94.0718 268.968 93.7861 270.462 93.7861C271.546 93.7861 272.542 93.9473 273.45 94.2695C274.358 94.5918 275.142 95.1118 275.801 95.8296C276.46 96.5474 276.973 97.4995 277.339 98.686C277.706 99.8579 277.889 101.308 277.889 103.037V118H270.462V103.037C270.462 102.055 270.345 101.315 270.11 100.817C269.891 100.305 269.568 99.9604 269.144 99.7847C268.719 99.5942 268.213 99.499 267.627 99.499C266.924 99.499 266.316 99.6455 265.804 99.9385C265.291 100.231 264.859 100.642 264.507 101.169C264.17 101.682 263.921 102.29 263.76 102.993C263.599 103.696 263.519 104.465 263.519 105.3ZM293.643 118.439C291.709 118.439 289.981 118.139 288.458 117.539C286.934 116.923 285.645 116.081 284.59 115.012C283.55 113.942 282.752 112.712 282.195 111.32C281.653 109.929 281.382 108.457 281.382 106.904V106.069C281.382 104.326 281.624 102.714 282.107 101.235C282.591 99.7407 283.309 98.437 284.261 97.3237C285.213 96.2104 286.407 95.3462 287.842 94.731C289.278 94.1011 290.948 93.7861 292.852 93.7861C294.537 93.7861 296.045 94.0571 297.378 94.5991C298.711 95.1411 299.839 95.9175 300.762 96.9282C301.7 97.939 302.41 99.1621 302.894 100.598C303.392 102.033 303.641 103.645 303.641 105.432V108.442H284.217V103.806H296.412V103.234C296.426 102.443 296.287 101.77 295.994 101.213C295.716 100.656 295.306 100.231 294.764 99.9385C294.222 99.6455 293.562 99.499 292.786 99.499C291.98 99.499 291.314 99.6748 290.787 100.026C290.274 100.378 289.871 100.861 289.578 101.477C289.3 102.077 289.102 102.773 288.985 103.564C288.868 104.355 288.809 105.19 288.809 106.069V106.904C288.809 107.783 288.926 108.581 289.161 109.299C289.41 110.017 289.761 110.632 290.215 111.145C290.684 111.643 291.241 112.031 291.885 112.309C292.544 112.587 293.292 112.727 294.126 112.727C295.137 112.727 296.133 112.536 297.115 112.155C298.096 111.774 298.938 111.145 299.642 110.266L303.003 114.265C302.52 114.953 301.832 115.62 300.938 116.264C300.059 116.909 299.004 117.436 297.774 117.846C296.543 118.242 295.167 118.439 293.643 118.439ZM319.109 111.32C319.109 110.91 318.97 110.559 318.692 110.266C318.428 109.958 317.959 109.68 317.286 109.431C316.612 109.167 315.667 108.903 314.451 108.64C313.294 108.391 312.203 108.061 311.177 107.651C310.167 107.241 309.28 106.743 308.519 106.157C307.757 105.571 307.156 104.875 306.717 104.069C306.292 103.264 306.08 102.341 306.08 101.301C306.08 100.29 306.292 99.3379 306.717 98.4443C307.156 97.5361 307.793 96.7378 308.628 96.0493C309.478 95.3462 310.511 94.7969 311.727 94.4014C312.942 93.9912 314.327 93.7861 315.879 93.7861C318.018 93.7861 319.864 94.1157 321.417 94.7749C322.969 95.4194 324.163 96.3276 324.998 97.4995C325.848 98.6567 326.272 99.9971 326.272 101.521H318.868C318.868 100.92 318.765 100.407 318.56 99.9824C318.37 99.5576 318.055 99.2354 317.615 99.0156C317.176 98.7812 316.59 98.6641 315.857 98.6641C315.345 98.6641 314.876 98.7593 314.451 98.9497C314.041 99.1401 313.711 99.4038 313.462 99.7407C313.213 100.078 313.089 100.473 313.089 100.927C313.089 101.25 313.162 101.542 313.309 101.806C313.47 102.055 313.711 102.29 314.034 102.509C314.356 102.714 314.766 102.905 315.264 103.081C315.762 103.242 316.363 103.388 317.066 103.52C318.663 103.813 320.157 104.23 321.548 104.772C322.94 105.314 324.068 106.083 324.932 107.08C325.811 108.076 326.25 109.416 326.25 111.101C326.25 112.155 326.009 113.129 325.525 114.023C325.042 114.902 324.346 115.678 323.438 116.352C322.53 117.011 321.438 117.524 320.164 117.89C318.89 118.256 317.454 118.439 315.857 118.439C313.587 118.439 311.668 118.037 310.101 117.231C308.533 116.411 307.347 115.385 306.541 114.155C305.75 112.91 305.354 111.65 305.354 110.375H312.254C312.283 111.108 312.459 111.708 312.781 112.177C313.118 112.646 313.565 112.99 314.122 113.21C314.678 113.43 315.323 113.54 316.055 113.54C316.729 113.54 317.286 113.444 317.725 113.254C318.179 113.063 318.523 112.807 318.758 112.485C318.992 112.148 319.109 111.76 319.109 111.32Z" fill="#424241"/>
<path d="M1363 15C1363 6.71573 1356.28 0 1348 0H1134V167H1348C1356.28 167 1363 160.284 1363 152V15Z" fill="#5BB259"/>
<path fill-rule="evenodd" clip-rule="evenodd" d="M1203 49C1203 47.8954 1203.9 47 1205 47H1292.5C1293.6 47 1294.5 47.8954 1294.5 49V118.996C1294.5 120.101 1293.6 120.996 1292.5 120.996H1205C1203.9 120.996 1203 120.101 1203 118.996V49ZM1207 51V55.4945H1290.5V51H1207ZM1290.5 59.4945H1235.44V116.996H1290.5V59.4945ZM1231.44 116.996V59.4945H1207V116.996H1231.44Z" fill="white"/>
<path fill-rule="evenodd" clip-rule="evenodd" d="M1209.97 64.8004C1209.97 63.6958 1210.87 62.8004 1211.97 62.8004H1225.97C1227.08 62.8004 1227.97 63.6958 1227.97 64.8004V84.1956C1227.97 85.3002 1227.08 86.1956 1225.97 86.1956H1211.97C1210.87 86.1956 1209.97 85.3002 1209.97 84.1956V64.8004ZM1213.97 66.8004V82.1956H1223.97V66.8004H1213.97ZM1239.58 65.6964C1239.58 64.5918 1240.47 63.6964 1241.58 63.6964H1284.5C1285.61 63.6964 1286.5 64.5918 1286.5 65.6964V111.905C1286.5 113.01 1285.61 113.905 1284.5 113.905H1241.58C1240.47 113.905 1239.58 113.01 1239.58 111.905V65.6964ZM1243.58 67.6964V109.905H1282.5V67.6964H1243.58ZM1209.81 95.9363C1209.81 94.8318 1210.71 93.9363 1211.81 93.9363H1220.73C1221.84 93.9363 1222.73 94.8318 1222.73 95.9363C1222.73 97.0409 1221.84 97.9363 1220.73 97.9363H1211.81C1210.71 97.9363 1209.81 97.0409 1209.81 95.9363ZM1209.81 102.936C1209.81 101.832 1210.71 100.936 1211.81 100.936H1226.35C1227.46 100.936 1228.35 101.832 1228.35 102.936C1228.35 104.041 1227.46 104.936 1226.35 104.936H1211.81C1210.71 104.936 1209.81 104.041 1209.81 102.936ZM1209.81 109.936C1209.81 108.832 1210.71 107.936 1211.81 107.936H1220.73C1221.84 107.936 1222.73 108.832 1222.73 109.936C1222.73 111.041 1221.84 111.936 1220.73 111.936H1211.81C1210.71 111.936 1209.81 111.041 1209.81 109.936Z" fill="white"/>
</svg>
