<svg width="1363" height="167" viewBox="0 0 1363 167" fill="none" xmlns="http://www.w3.org/2000/svg">
<rect width="1363" height="167" rx="15" fill="#F0F0F0"/>
<path d="M0 15C0 6.71573 6.71573 0 15 0H37V167H15C6.71573 167 0 160.284 0 152V15Z" fill="#424241"/>
<path d="M100.906 50.9219L93.3945 48.2383V45.0859L103.602 49.375V51.6367L100.906 50.9219ZM93.3945 53.1719L100.918 50.4297L103.602 49.7852V52.0352L93.3945 56.3242V53.1719ZM117.371 55.2578V58H108.289V55.2578H117.371ZM109.438 40.9375V58H105.922V40.9375H109.438ZM116.188 47.8867V50.5586H108.289V47.8867H116.188ZM117.359 40.9375V43.6914H108.289V40.9375H117.359ZM124.215 55.5977C124.629 55.5977 124.996 55.5195 125.316 55.3633C125.637 55.1992 125.887 54.9727 126.066 54.6836C126.254 54.3867 126.352 54.0391 126.359 53.6406H129.535C129.527 54.5312 129.289 55.3242 128.82 56.0195C128.352 56.707 127.723 57.25 126.934 57.6484C126.145 58.0391 125.262 58.2344 124.285 58.2344C123.301 58.2344 122.441 58.0703 121.707 57.7422C120.98 57.4141 120.375 56.9609 119.891 56.3828C119.406 55.7969 119.043 55.1172 118.801 54.3438C118.559 53.5625 118.438 52.7266 118.438 51.8359V51.4961C118.438 50.5977 118.559 49.7617 118.801 48.9883C119.043 48.207 119.406 47.5273 119.891 46.9492C120.375 46.3633 120.98 45.9062 121.707 45.5781C122.434 45.25 123.285 45.0859 124.262 45.0859C125.301 45.0859 126.211 45.2852 126.992 45.6836C127.781 46.082 128.398 46.6523 128.844 47.3945C129.297 48.1289 129.527 49 129.535 50.0078H126.359C126.352 49.5859 126.262 49.2031 126.09 48.8594C125.926 48.5156 125.684 48.2422 125.363 48.0391C125.051 47.8281 124.664 47.7227 124.203 47.7227C123.711 47.7227 123.309 47.8281 122.996 48.0391C122.684 48.2422 122.441 48.5234 122.27 48.8828C122.098 49.2344 121.977 49.6367 121.906 50.0898C121.844 50.5352 121.812 51.0039 121.812 51.4961V51.8359C121.812 52.3281 121.844 52.8008 121.906 53.2539C121.969 53.707 122.086 54.1094 122.258 54.4609C122.438 54.8125 122.684 55.0898 122.996 55.293C123.309 55.4961 123.715 55.5977 124.215 55.5977ZM130.953 51.7891V51.543C130.953 50.6133 131.086 49.7578 131.352 48.9766C131.617 48.1875 132.004 47.5039 132.512 46.9258C133.02 46.3477 133.645 45.8984 134.387 45.5781C135.129 45.25 135.98 45.0859 136.941 45.0859C137.902 45.0859 138.758 45.25 139.508 45.5781C140.258 45.8984 140.887 46.3477 141.395 46.9258C141.91 47.5039 142.301 48.1875 142.566 48.9766C142.832 49.7578 142.965 50.6133 142.965 51.543V51.7891C142.965 52.7109 142.832 53.5664 142.566 54.3555C142.301 55.1367 141.91 55.8203 141.395 56.4062C140.887 56.9844 140.262 57.4336 139.52 57.7539C138.777 58.0742 137.926 58.2344 136.965 58.2344C136.004 58.2344 135.148 58.0742 134.398 57.7539C133.656 57.4336 133.027 56.9844 132.512 56.4062C132.004 55.8203 131.617 55.1367 131.352 54.3555C131.086 53.5664 130.953 52.7109 130.953 51.7891ZM134.328 51.543V51.7891C134.328 52.3203 134.375 52.8164 134.469 53.2773C134.562 53.7383 134.711 54.1445 134.914 54.4961C135.125 54.8398 135.398 55.1094 135.734 55.3047C136.07 55.5 136.48 55.5977 136.965 55.5977C137.434 55.5977 137.836 55.5 138.172 55.3047C138.508 55.1094 138.777 54.8398 138.98 54.4961C139.184 54.1445 139.332 53.7383 139.426 53.2773C139.527 52.8164 139.578 52.3203 139.578 51.7891V51.543C139.578 51.0273 139.527 50.543 139.426 50.0898C139.332 49.6289 139.18 49.2227 138.969 48.8711C138.766 48.5117 138.496 48.2305 138.16 48.0273C137.824 47.8242 137.418 47.7227 136.941 47.7227C136.465 47.7227 136.059 47.8242 135.723 48.0273C135.395 48.2305 135.125 48.5117 134.914 48.8711C134.711 49.2227 134.562 49.6289 134.469 50.0898C134.375 50.543 134.328 51.0273 134.328 51.543ZM160.109 53.5352C160.109 53.2305 160.062 52.957 159.969 52.7148C159.883 52.4648 159.719 52.2383 159.477 52.0352C159.234 51.8242 158.895 51.6172 158.457 51.4141C158.02 51.2109 157.453 51 156.758 50.7812C155.984 50.5312 155.25 50.25 154.555 49.9375C153.867 49.625 153.258 49.2617 152.727 48.8477C152.203 48.4258 151.789 47.9375 151.484 47.3828C151.188 46.8281 151.039 46.1836 151.039 45.4492C151.039 44.7383 151.195 44.0938 151.508 43.5156C151.82 42.9297 152.258 42.4297 152.82 42.0156C153.383 41.5938 154.047 41.2695 154.812 41.043C155.586 40.8164 156.434 40.7031 157.355 40.7031C158.613 40.7031 159.711 40.9297 160.648 41.3828C161.586 41.8359 162.312 42.457 162.828 43.2461C163.352 44.0352 163.613 44.9375 163.613 45.9531H160.121C160.121 45.4531 160.016 45.0156 159.805 44.6406C159.602 44.2578 159.289 43.957 158.867 43.7383C158.453 43.5195 157.93 43.4102 157.297 43.4102C156.688 43.4102 156.18 43.5039 155.773 43.6914C155.367 43.8711 155.062 44.1172 154.859 44.4297C154.656 44.7344 154.555 45.0781 154.555 45.4609C154.555 45.75 154.625 46.0117 154.766 46.2461C154.914 46.4805 155.133 46.6992 155.422 46.9023C155.711 47.1055 156.066 47.2969 156.488 47.4766C156.91 47.6562 157.398 47.832 157.953 48.0039C158.883 48.2852 159.699 48.6016 160.402 48.9531C161.113 49.3047 161.707 49.6992 162.184 50.1367C162.66 50.5742 163.02 51.0703 163.262 51.625C163.504 52.1797 163.625 52.8086 163.625 53.5117C163.625 54.2539 163.48 54.918 163.191 55.5039C162.902 56.0898 162.484 56.5859 161.938 56.9922C161.391 57.3984 160.738 57.707 159.98 57.918C159.223 58.1289 158.375 58.2344 157.438 58.2344C156.594 58.2344 155.762 58.125 154.941 57.9062C154.121 57.6797 153.375 57.3398 152.703 56.8867C152.039 56.4336 151.508 55.8555 151.109 55.1523C150.711 54.4492 150.512 53.6172 150.512 52.6562H154.039C154.039 53.1875 154.121 53.6367 154.285 54.0039C154.449 54.3711 154.68 54.668 154.977 54.8945C155.281 55.1211 155.641 55.2852 156.055 55.3867C156.477 55.4883 156.938 55.5391 157.438 55.5391C158.047 55.5391 158.547 55.4531 158.938 55.2812C159.336 55.1094 159.629 54.8711 159.816 54.5664C160.012 54.2617 160.109 53.918 160.109 53.5352ZM165.266 51.7891V51.543C165.266 50.6133 165.398 49.7578 165.664 48.9766C165.93 48.1875 166.316 47.5039 166.824 46.9258C167.332 46.3477 167.957 45.8984 168.699 45.5781C169.441 45.25 170.293 45.0859 171.254 45.0859C172.215 45.0859 173.07 45.25 173.82 45.5781C174.57 45.8984 175.199 46.3477 175.707 46.9258C176.223 47.5039 176.613 48.1875 176.879 48.9766C177.145 49.7578 177.277 50.6133 177.277 51.543V51.7891C177.277 52.7109 177.145 53.5664 176.879 54.3555C176.613 55.1367 176.223 55.8203 175.707 56.4062C175.199 56.9844 174.574 57.4336 173.832 57.7539C173.09 58.0742 172.238 58.2344 171.277 58.2344C170.316 58.2344 169.461 58.0742 168.711 57.7539C167.969 57.4336 167.34 56.9844 166.824 56.4062C166.316 55.8203 165.93 55.1367 165.664 54.3555C165.398 53.5664 165.266 52.7109 165.266 51.7891ZM168.641 51.543V51.7891C168.641 52.3203 168.688 52.8164 168.781 53.2773C168.875 53.7383 169.023 54.1445 169.227 54.4961C169.438 54.8398 169.711 55.1094 170.047 55.3047C170.383 55.5 170.793 55.5977 171.277 55.5977C171.746 55.5977 172.148 55.5 172.484 55.3047C172.82 55.1094 173.09 54.8398 173.293 54.4961C173.496 54.1445 173.645 53.7383 173.738 53.2773C173.84 52.8164 173.891 52.3203 173.891 51.7891V51.543C173.891 51.0273 173.84 50.543 173.738 50.0898C173.645 49.6289 173.492 49.2227 173.281 48.8711C173.078 48.5117 172.809 48.2305 172.473 48.0273C172.137 47.8242 171.73 47.7227 171.254 47.7227C170.777 47.7227 170.371 47.8242 170.035 48.0273C169.707 48.2305 169.438 48.5117 169.227 48.8711C169.023 49.2227 168.875 49.6289 168.781 50.0898C168.688 50.543 168.641 51.0273 168.641 51.543ZM182.727 48.0859V58H179.352V45.3203H182.527L182.727 48.0859ZM186.547 45.2383L186.488 48.3672C186.324 48.3438 186.125 48.3242 185.891 48.3086C185.664 48.2852 185.457 48.2734 185.27 48.2734C184.793 48.2734 184.379 48.3359 184.027 48.4609C183.684 48.5781 183.395 48.7539 183.16 48.9883C182.934 49.2227 182.762 49.5078 182.645 49.8438C182.535 50.1797 182.473 50.5625 182.457 50.9922L181.777 50.7812C181.777 49.9609 181.859 49.207 182.023 48.5195C182.188 47.8242 182.426 47.2188 182.738 46.7031C183.059 46.1875 183.449 45.7891 183.91 45.5078C184.371 45.2266 184.898 45.0859 185.492 45.0859C185.68 45.0859 185.871 45.1016 186.066 45.1328C186.262 45.1562 186.422 45.1914 186.547 45.2383ZM194.938 45.3203V47.7109H187.555V45.3203H194.938ZM189.383 42.1914H192.758V54.1797C192.758 54.5469 192.805 54.8281 192.898 55.0234C193 55.2188 193.148 55.3555 193.344 55.4336C193.539 55.5039 193.785 55.5391 194.082 55.5391C194.293 55.5391 194.48 55.5312 194.645 55.5156C194.816 55.4922 194.961 55.4688 195.078 55.4453L195.09 57.9297C194.801 58.0234 194.488 58.0977 194.152 58.1523C193.816 58.207 193.445 58.2344 193.039 58.2344C192.297 58.2344 191.648 58.1133 191.094 57.8711C190.547 57.6211 190.125 57.2227 189.828 56.6758C189.531 56.1289 189.383 55.4102 189.383 54.5195V42.1914Z" fill="#888888"/>
<path d="M115.994 98.708V104.641H99.5806V98.708H115.994ZM102.151 86.0078V118H94.439V86.0078H102.151ZM121.18 86.0078V118H113.489V86.0078H121.18ZM124.805 106.354V105.893C124.805 104.15 125.054 102.546 125.552 101.081C126.05 99.6016 126.783 98.3198 127.75 97.2358C128.716 96.1519 129.91 95.3096 131.331 94.709C132.752 94.0938 134.393 93.7861 136.253 93.7861C138.128 93.7861 139.776 94.0938 141.197 94.709C142.632 95.3096 143.833 96.1519 144.8 97.2358C145.767 98.3198 146.5 99.6016 146.998 101.081C147.496 102.546 147.745 104.15 147.745 105.893V106.354C147.745 108.083 147.496 109.687 146.998 111.167C146.5 112.631 145.767 113.913 144.8 115.012C143.833 116.096 142.64 116.938 141.219 117.539C139.798 118.139 138.157 118.439 136.297 118.439C134.437 118.439 132.789 118.139 131.353 117.539C129.917 116.938 128.716 116.096 127.75 115.012C126.783 113.913 126.05 112.631 125.552 111.167C125.054 109.687 124.805 108.083 124.805 106.354ZM132.21 105.893V106.354C132.21 107.248 132.276 108.083 132.408 108.859C132.54 109.636 132.759 110.317 133.067 110.903C133.375 111.474 133.792 111.921 134.319 112.243C134.847 112.565 135.506 112.727 136.297 112.727C137.073 112.727 137.718 112.565 138.23 112.243C138.758 111.921 139.175 111.474 139.483 110.903C139.791 110.317 140.01 109.636 140.142 108.859C140.274 108.083 140.34 107.248 140.34 106.354V105.893C140.34 105.029 140.274 104.216 140.142 103.454C140.01 102.678 139.791 101.997 139.483 101.411C139.175 100.81 138.758 100.341 138.23 100.004C137.703 99.6675 137.044 99.499 136.253 99.499C135.477 99.499 134.825 99.6675 134.297 100.004C133.785 100.341 133.375 100.81 133.067 101.411C132.759 101.997 132.54 102.678 132.408 103.454C132.276 104.216 132.21 105.029 132.21 105.893ZM158.27 110.925L162.664 94.2256H167.3L165.652 102.597L161.302 118H157.588L158.27 110.925ZM156.534 94.2256L159.258 110.793L159.566 118H155.062L149.437 94.2256H156.534ZM171.211 110.441L173.958 94.2256H181.055L175.474 118H170.97L171.211 110.441ZM167.828 94.2256L172.266 110.881L172.947 118H169.19L164.927 102.641L163.345 94.2256H167.828ZM209.466 86.0078V118H201.753V86.0078H209.466ZM219.09 86.0078V91.9624H192.349V86.0078H219.09ZM216.475 106.354V105.893C216.475 104.15 216.724 102.546 217.222 101.081C217.72 99.6016 218.453 98.3198 219.419 97.2358C220.386 96.1519 221.58 95.3096 223.001 94.709C224.422 94.0938 226.062 93.7861 227.923 93.7861C229.798 93.7861 231.446 94.0938 232.867 94.709C234.302 95.3096 235.503 96.1519 236.47 97.2358C237.437 98.3198 238.169 99.6016 238.667 101.081C239.166 102.546 239.415 104.15 239.415 105.893V106.354C239.415 108.083 239.166 109.687 238.667 111.167C238.169 112.631 237.437 113.913 236.47 115.012C235.503 116.096 234.31 116.938 232.889 117.539C231.468 118.139 229.827 118.439 227.967 118.439C226.106 118.439 224.458 118.139 223.023 117.539C221.587 116.938 220.386 116.096 219.419 115.012C218.453 113.913 217.72 112.631 217.222 111.167C216.724 109.687 216.475 108.083 216.475 106.354ZM223.88 105.893V106.354C223.88 107.248 223.946 108.083 224.078 108.859C224.209 109.636 224.429 110.317 224.737 110.903C225.044 111.474 225.462 111.921 225.989 112.243C226.517 112.565 227.176 112.727 227.967 112.727C228.743 112.727 229.388 112.565 229.9 112.243C230.428 111.921 230.845 111.474 231.153 110.903C231.46 110.317 231.68 109.636 231.812 108.859C231.944 108.083 232.01 107.248 232.01 106.354V105.893C232.01 105.029 231.944 104.216 231.812 103.454C231.68 102.678 231.46 101.997 231.153 101.411C230.845 100.81 230.428 100.341 229.9 100.004C229.373 99.6675 228.714 99.499 227.923 99.499C227.146 99.499 226.495 99.6675 225.967 100.004C225.455 100.341 225.044 100.81 224.737 101.411C224.429 101.997 224.209 102.678 224.078 103.454C223.946 104.216 223.88 105.029 223.88 105.893ZM254.268 86.0078H266.858C269.319 86.0078 271.458 86.374 273.274 87.1064C275.091 87.8389 276.49 88.9229 277.471 90.3584C278.467 91.7939 278.965 93.5664 278.965 95.6758C278.965 97.5068 278.68 99.0376 278.108 100.268C277.537 101.499 276.739 102.517 275.713 103.322C274.703 104.113 273.523 104.765 272.176 105.278L269.649 106.706H259.08L259.036 100.751H266.858C267.84 100.751 268.653 100.576 269.297 100.224C269.942 99.8726 270.425 99.3745 270.748 98.73C271.084 98.0708 271.253 97.2871 271.253 96.3789C271.253 95.4561 271.084 94.665 270.748 94.0059C270.411 93.3467 269.913 92.8413 269.253 92.4897C268.609 92.1382 267.811 91.9624 266.858 91.9624H261.98V118H254.268V86.0078ZM271.78 118L264.705 103.85L272.879 103.806L280.042 117.67V118H271.78ZM297.159 112.221V94.2256H304.585V118H297.642L297.159 112.221ZM297.862 107.387L299.795 107.343C299.795 108.94 299.605 110.419 299.224 111.782C298.843 113.129 298.279 114.301 297.532 115.297C296.8 116.293 295.892 117.07 294.808 117.626C293.738 118.168 292.5 118.439 291.094 118.439C289.922 118.439 288.846 118.278 287.864 117.956C286.897 117.619 286.062 117.099 285.359 116.396C284.656 115.678 284.107 114.763 283.711 113.649C283.331 112.521 283.14 111.174 283.14 109.606V94.2256H290.545V109.65C290.545 110.178 290.611 110.632 290.743 111.013C290.875 111.394 291.065 111.716 291.314 111.979C291.563 112.229 291.871 112.419 292.237 112.551C292.618 112.668 293.05 112.727 293.533 112.727C294.646 112.727 295.518 112.492 296.148 112.023C296.778 111.555 297.217 110.917 297.466 110.112C297.73 109.306 297.862 108.398 297.862 107.387ZM315.945 99.3013V118H308.541V94.2256H315.484L315.945 99.3013ZM315.066 105.3L313.331 105.344C313.331 103.527 313.55 101.909 313.99 100.488C314.429 99.0522 315.052 97.8364 315.857 96.8403C316.663 95.8442 317.623 95.0898 318.736 94.5771C319.864 94.0498 321.116 93.7861 322.493 93.7861C323.592 93.7861 324.595 93.9473 325.503 94.2695C326.426 94.5918 327.217 95.1118 327.876 95.8296C328.55 96.5474 329.063 97.4995 329.415 98.686C329.781 99.8579 329.964 101.308 329.964 103.037V118H322.515V103.015C322.515 102.062 322.383 101.337 322.12 100.839C321.856 100.327 321.475 99.9751 320.977 99.7847C320.479 99.5942 319.871 99.499 319.153 99.499C318.392 99.499 317.747 99.6455 317.22 99.9385C316.692 100.231 316.268 100.642 315.945 101.169C315.638 101.682 315.411 102.29 315.264 102.993C315.132 103.696 315.066 104.465 315.066 105.3ZM345.85 107.871H339.544C339.544 106.582 339.632 105.446 339.808 104.465C339.998 103.469 340.32 102.575 340.774 101.784C341.229 100.993 341.844 100.261 342.62 99.5869C343.309 99.0156 343.902 98.4663 344.4 97.939C344.898 97.4116 345.279 96.877 345.542 96.335C345.806 95.793 345.938 95.2144 345.938 94.5991C345.938 93.8374 345.828 93.2148 345.608 92.7314C345.403 92.248 345.088 91.8892 344.664 91.6548C344.253 91.4058 343.733 91.2812 343.104 91.2812C342.591 91.2812 342.107 91.4058 341.653 91.6548C341.214 91.9038 340.855 92.292 340.577 92.8193C340.298 93.332 340.145 94.0132 340.115 94.8628H332.667C332.71 92.6802 333.194 90.9077 334.117 89.5454C335.054 88.1685 336.299 87.165 337.852 86.5352C339.419 85.8906 341.17 85.5684 343.104 85.5684C345.242 85.5684 347.081 85.8979 348.619 86.5571C350.157 87.2163 351.336 88.1978 352.156 89.5015C352.977 90.7905 353.387 92.3799 353.387 94.2695C353.387 95.5293 353.145 96.6279 352.662 97.5654C352.193 98.4883 351.556 99.3525 350.75 100.158C349.959 100.949 349.073 101.799 348.091 102.707C347.242 103.454 346.663 104.216 346.355 104.992C346.048 105.754 345.879 106.713 345.85 107.871ZM338.643 114.55C338.643 113.496 339.024 112.617 339.786 111.914C340.547 111.196 341.536 110.837 342.752 110.837C343.968 110.837 344.957 111.196 345.718 111.914C346.48 112.617 346.861 113.496 346.861 114.55C346.861 115.605 346.48 116.491 345.718 117.209C344.957 117.912 343.968 118.264 342.752 118.264C341.536 118.264 340.547 117.912 339.786 117.209C339.024 116.491 338.643 115.605 338.643 114.55Z" fill="#424241"/>
<path d="M1363 15C1363 6.71573 1356.28 0 1348 0H1134V167H1348C1356.28 167 1363 160.284 1363 152V15Z" fill="#5BB259"/>
<path d="M1260.77 81.3078C1263.96 81.3078 1267.09 82.2552 1269.74 84.0302C1272.4 85.8052 1274.47 88.3281 1275.69 91.2798C1276.92 94.2315 1277.24 97.4795 1276.61 100.613C1275.99 103.747 1274.45 106.625 1272.19 108.884C1269.93 111.143 1267.05 112.682 1263.92 113.305C1260.79 113.928 1257.54 113.608 1254.59 112.386C1251.64 111.163 1249.11 109.093 1247.34 106.436C1245.56 103.78 1244.62 100.657 1244.62 97.4616C1244.62 93.1774 1246.32 89.0686 1249.35 86.0392C1252.38 83.0097 1256.48 81.3078 1260.77 81.3078V81.3078ZM1260.77 75.9232C1256.51 75.9232 1252.35 77.1864 1248.8 79.5531C1245.26 81.9198 1242.5 85.2836 1240.87 89.2192C1239.24 93.1549 1238.81 97.4855 1239.64 101.664C1240.48 105.842 1242.53 109.679 1245.54 112.692C1248.55 115.704 1252.39 117.755 1256.57 118.586C1260.75 119.417 1265.08 118.991 1269.01 117.361C1272.95 115.73 1276.31 112.97 1278.68 109.428C1281.04 105.886 1282.31 101.722 1282.31 97.4616C1282.31 91.7493 1280.04 86.2709 1276 82.2317C1271.96 78.1924 1266.48 75.9232 1260.77 75.9232Z" fill="white"/>
<path d="M1274.23 49H1220.38C1218.96 49 1217.59 49.5673 1216.58 50.5771C1215.57 51.5869 1215 52.9565 1215 54.3846V108.231C1215 109.659 1215.57 111.028 1216.58 112.038C1217.59 113.048 1218.96 113.615 1220.38 113.615H1231.15V108.231H1220.38V70.5384H1279.62V54.3846C1279.62 52.9565 1279.05 51.5869 1278.04 50.5771C1277.03 49.5673 1275.66 49 1274.23 49V49ZM1220.38 65.1538V54.3846H1274.23V65.1538H1220.38Z" fill="white"/>
<path d="M1255.38 89.3849V105.539L1268.85 97.4618L1255.38 89.3849Z" fill="white"/>
</svg>
