<svg width="1363" height="301" viewBox="0 0 1363 301" fill="none" xmlns="http://www.w3.org/2000/svg">
<rect width="1363" height="301" rx="15" fill="#F0F0F0"/>
<path d="M0 15C0 6.71573 6.71573 0 15 0H37V301H15C6.71573 301 0 294.284 0 286V15Z" fill="#5BB259"/>
<path d="M121.89 136.749V144H101.05V136.749H121.89ZM104.407 104.898V144H94.981V104.898H104.407ZM119.205 120.421V127.43H101.05V120.421H119.205ZM121.971 104.898V112.176H101.05V104.898H121.971ZM137.063 137.555C137.905 137.555 138.621 137.403 139.212 137.098C139.821 136.776 140.277 136.328 140.582 135.755C140.904 135.165 141.056 134.457 141.038 133.634H149.551C149.569 135.818 149.032 137.734 147.94 139.381C146.866 141.01 145.398 142.281 143.536 143.194C141.692 144.09 139.606 144.537 137.278 144.537C135.005 144.537 133.017 144.17 131.316 143.436C129.616 142.684 128.192 141.646 127.046 140.321C125.918 138.978 125.068 137.411 124.495 135.621C123.94 133.831 123.663 131.888 123.663 129.793V129.176C123.663 127.081 123.94 125.139 124.495 123.348C125.068 121.54 125.918 119.973 127.046 118.648C128.192 117.306 129.607 116.267 131.29 115.533C132.99 114.781 134.969 114.405 137.225 114.405C139.642 114.405 141.772 114.862 143.616 115.775C145.478 116.688 146.937 118.013 147.994 119.75C149.05 121.486 149.569 123.59 149.551 126.061H141.038C141.056 125.183 140.922 124.396 140.635 123.697C140.349 122.999 139.901 122.444 139.292 122.032C138.702 121.603 137.941 121.388 137.01 121.388C136.079 121.388 135.327 121.594 134.754 122.005C134.181 122.417 133.742 122.99 133.438 123.724C133.152 124.44 132.955 125.264 132.847 126.195C132.758 127.126 132.713 128.119 132.713 129.176V129.793C132.713 130.868 132.758 131.879 132.847 132.828C132.955 133.759 133.16 134.583 133.465 135.299C133.769 135.997 134.208 136.552 134.781 136.964C135.354 137.358 136.115 137.555 137.063 137.555ZM152.291 129.767V129.203C152.291 127.072 152.595 125.112 153.204 123.321C153.812 121.513 154.708 119.946 155.889 118.622C157.071 117.297 158.53 116.267 160.267 115.533C162.003 114.781 164.008 114.405 166.282 114.405C168.574 114.405 170.588 114.781 172.325 115.533C174.079 116.267 175.547 117.297 176.729 118.622C177.911 119.946 178.806 121.513 179.415 123.321C180.023 125.112 180.328 127.072 180.328 129.203V129.767C180.328 131.879 180.023 133.84 179.415 135.648C178.806 137.438 177.911 139.005 176.729 140.348C175.547 141.673 174.088 142.702 172.352 143.436C170.615 144.17 168.61 144.537 166.336 144.537C164.062 144.537 162.048 144.17 160.293 143.436C158.539 142.702 157.071 141.673 155.889 140.348C154.708 139.005 153.812 137.438 153.204 135.648C152.595 133.84 152.291 131.879 152.291 129.767ZM161.341 129.203V129.767C161.341 130.859 161.421 131.879 161.583 132.828C161.744 133.777 162.012 134.61 162.388 135.326C162.764 136.024 163.274 136.57 163.919 136.964C164.563 137.358 165.369 137.555 166.336 137.555C167.285 137.555 168.073 137.358 168.699 136.964C169.344 136.57 169.854 136.024 170.23 135.326C170.606 134.61 170.875 133.777 171.036 132.828C171.197 131.879 171.277 130.859 171.277 129.767V129.203C171.277 128.146 171.197 127.153 171.036 126.222C170.875 125.273 170.606 124.44 170.23 123.724C169.854 122.99 169.344 122.417 168.699 122.005C168.055 121.594 167.249 121.388 166.282 121.388C165.333 121.388 164.537 121.594 163.892 122.005C163.265 122.417 162.764 122.99 162.388 123.724C162.012 124.44 161.744 125.273 161.583 126.222C161.421 127.153 161.341 128.146 161.341 129.203ZM218.624 133.607C218.624 132.998 218.534 132.452 218.355 131.969C218.176 131.467 217.845 131.002 217.361 130.572C216.878 130.143 216.18 129.713 215.267 129.283C214.371 128.836 213.19 128.37 211.722 127.887C210.003 127.314 208.347 126.669 206.753 125.953C205.16 125.219 203.737 124.369 202.483 123.402C201.23 122.417 200.236 121.271 199.502 119.964C198.768 118.639 198.401 117.1 198.401 115.345C198.401 113.662 198.777 112.149 199.529 110.807C200.281 109.446 201.329 108.291 202.671 107.342C204.032 106.375 205.625 105.641 207.452 105.14C209.278 104.621 211.274 104.361 213.44 104.361C216.305 104.361 218.829 104.863 221.014 105.865C223.216 106.85 224.935 108.255 226.17 110.082C227.423 111.89 228.05 114.029 228.05 116.5H218.677C218.677 115.515 218.471 114.647 218.06 113.895C217.666 113.143 217.066 112.552 216.26 112.123C215.455 111.693 214.443 111.478 213.226 111.478C212.044 111.478 211.05 111.657 210.245 112.015C209.439 112.373 208.83 112.857 208.418 113.465C208.007 114.056 207.801 114.71 207.801 115.426C207.801 116.017 207.962 116.554 208.284 117.037C208.624 117.503 209.099 117.941 209.708 118.353C210.334 118.765 211.086 119.159 211.963 119.535C212.859 119.911 213.861 120.278 214.971 120.636C217.048 121.298 218.892 122.041 220.503 122.865C222.133 123.67 223.502 124.592 224.612 125.631C225.74 126.651 226.591 127.815 227.164 129.122C227.754 130.429 228.05 131.906 228.05 133.553C228.05 135.308 227.71 136.865 227.029 138.226C226.349 139.587 225.373 140.742 224.102 141.69C222.831 142.621 221.309 143.329 219.537 143.812C217.764 144.295 215.786 144.537 213.602 144.537C211.596 144.537 209.618 144.286 207.667 143.785C205.733 143.266 203.978 142.478 202.403 141.422C200.827 140.348 199.565 138.978 198.616 137.313C197.685 135.63 197.22 133.634 197.22 131.324H206.673C206.673 132.47 206.825 133.437 207.129 134.225C207.434 135.012 207.881 135.648 208.472 136.131C209.063 136.597 209.788 136.937 210.647 137.152C211.507 137.349 212.492 137.447 213.602 137.447C214.801 137.447 215.768 137.277 216.502 136.937C217.236 136.579 217.773 136.113 218.113 135.541C218.453 134.95 218.624 134.305 218.624 133.607ZM231.353 129.767V129.203C231.353 127.072 231.657 125.112 232.266 123.321C232.875 121.513 233.77 119.946 234.952 118.622C236.133 117.297 237.592 116.267 239.329 115.533C241.066 114.781 243.071 114.405 245.345 114.405C247.636 114.405 249.651 114.781 251.387 115.533C253.142 116.267 254.61 117.297 255.792 118.622C256.973 119.946 257.868 121.513 258.477 123.321C259.086 125.112 259.39 127.072 259.39 129.203V129.767C259.39 131.879 259.086 133.84 258.477 135.648C257.868 137.438 256.973 139.005 255.792 140.348C254.61 141.673 253.151 142.702 251.414 143.436C249.677 144.17 247.672 144.537 245.398 144.537C243.125 144.537 241.111 144.17 239.356 143.436C237.601 142.702 236.133 141.673 234.952 140.348C233.77 139.005 232.875 137.438 232.266 135.648C231.657 133.84 231.353 131.879 231.353 129.767ZM240.403 129.203V129.767C240.403 130.859 240.484 131.879 240.645 132.828C240.806 133.777 241.075 134.61 241.451 135.326C241.827 136.024 242.337 136.57 242.981 136.964C243.626 137.358 244.432 137.555 245.398 137.555C246.347 137.555 247.135 137.358 247.762 136.964C248.406 136.57 248.917 136.024 249.292 135.326C249.668 134.61 249.937 133.777 250.098 132.828C250.259 131.879 250.34 130.859 250.34 129.767V129.203C250.34 128.146 250.259 127.153 250.098 126.222C249.937 125.273 249.668 124.44 249.292 123.724C248.917 122.99 248.406 122.417 247.762 122.005C247.117 121.594 246.312 121.388 245.345 121.388C244.396 121.388 243.599 121.594 242.955 122.005C242.328 122.417 241.827 122.99 241.451 123.724C241.075 124.44 240.806 125.273 240.645 126.222C240.484 127.153 240.403 128.146 240.403 129.203ZM272.549 122.14V144H263.499V114.942H271.958L272.549 122.14ZM281.143 114.728L280.982 123.133C280.624 123.097 280.14 123.053 279.532 122.999C278.923 122.945 278.413 122.918 278.001 122.918C276.945 122.918 276.032 123.044 275.262 123.294C274.51 123.527 273.883 123.885 273.382 124.369C272.898 124.834 272.54 125.425 272.308 126.141C272.093 126.857 271.994 127.69 272.012 128.639L270.374 127.564C270.374 125.613 270.562 123.84 270.938 122.247C271.332 120.636 271.887 119.248 272.603 118.084C273.319 116.903 274.188 115.999 275.208 115.372C276.229 114.728 277.374 114.405 278.646 114.405C279.093 114.405 279.532 114.432 279.961 114.486C280.409 114.54 280.803 114.62 281.143 114.728ZM300.909 114.942V121.227H283.399V114.942H300.909ZM287.078 107.718H296.128V134.52C296.128 135.29 296.218 135.89 296.397 136.319C296.576 136.731 296.88 137.027 297.31 137.206C297.758 137.367 298.348 137.447 299.083 137.447C299.602 137.447 300.031 137.438 300.372 137.42C300.712 137.385 301.034 137.34 301.338 137.286V143.758C300.569 144.009 299.763 144.197 298.921 144.322C298.08 144.465 297.185 144.537 296.236 144.537C294.302 144.537 292.646 144.233 291.268 143.624C289.907 143.015 288.868 142.057 288.152 140.75C287.436 139.444 287.078 137.743 287.078 135.648V107.718Z" fill="black"/>
<path d="M110.218 76.001V80H97.6909V76.001H110.218ZM99.3486 55.1172V80H94.2217V55.1172H99.3486ZM122.83 75.8301V67.5928C122.83 67.0003 122.733 66.4933 122.54 66.0718C122.346 65.6388 122.044 65.3027 121.634 65.0635C121.235 64.8242 120.717 64.7046 120.079 64.7046C119.532 64.7046 119.059 64.8014 118.66 64.9951C118.261 65.1774 117.954 65.4451 117.737 65.7983C117.521 66.1401 117.413 66.5446 117.413 67.0117H112.491C112.491 66.2256 112.673 65.4793 113.038 64.7729C113.402 64.0666 113.932 63.4456 114.627 62.9102C115.322 62.3633 116.148 61.936 117.105 61.6284C118.073 61.3208 119.156 61.167 120.352 61.167C121.788 61.167 123.064 61.4062 124.18 61.8848C125.297 62.3633 126.174 63.0811 126.812 64.0381C127.461 64.9951 127.786 66.1914 127.786 67.627V75.5396C127.786 76.5535 127.849 77.3853 127.974 78.0347C128.099 78.6727 128.282 79.231 128.521 79.7095V80H123.548C123.309 79.4987 123.126 78.8721 123.001 78.1201C122.887 77.3568 122.83 76.5934 122.83 75.8301ZM123.479 68.7378L123.514 71.5234H120.762C120.113 71.5234 119.549 71.5975 119.07 71.7456C118.592 71.8937 118.199 72.1045 117.891 72.3779C117.583 72.64 117.356 72.9476 117.208 73.3008C117.071 73.654 117.002 74.0413 117.002 74.4629C117.002 74.8844 117.099 75.2661 117.293 75.6079C117.487 75.9383 117.766 76.2004 118.13 76.394C118.495 76.5763 118.922 76.6675 119.412 76.6675C120.153 76.6675 120.796 76.5194 121.343 76.2231C121.89 75.9269 122.312 75.5623 122.608 75.1294C122.916 74.6965 123.075 74.2863 123.086 73.8989L124.385 75.9839C124.203 76.451 123.952 76.9352 123.633 77.4365C123.326 77.9378 122.933 78.4106 122.454 78.855C121.976 79.2879 121.4 79.6468 120.728 79.9316C120.056 80.2051 119.258 80.3418 118.335 80.3418C117.162 80.3418 116.097 80.1082 115.14 79.6411C114.194 79.1626 113.442 78.5075 112.884 77.6758C112.337 76.8327 112.063 75.8757 112.063 74.8047C112.063 73.8363 112.246 72.9761 112.61 72.2241C112.975 71.4722 113.51 70.8398 114.217 70.3271C114.935 69.8031 115.829 69.41 116.9 69.1479C117.971 68.8745 119.213 68.7378 120.625 68.7378H123.479ZM136.502 65.3369V80H131.563V61.5088H136.194L136.502 65.3369ZM135.818 70.105H134.451C134.451 68.8175 134.605 67.6326 134.913 66.5503C135.232 65.4565 135.693 64.5109 136.297 63.7134C136.912 62.9045 137.67 62.2778 138.57 61.8335C139.47 61.3892 140.512 61.167 141.697 61.167C142.518 61.167 143.27 61.2923 143.953 61.543C144.637 61.7822 145.223 62.1639 145.713 62.688C146.215 63.2007 146.602 63.8729 146.875 64.7046C147.149 65.5249 147.286 66.5104 147.286 67.6611V80H142.364V68.208C142.364 67.3649 142.25 66.7155 142.022 66.2598C141.794 65.804 141.469 65.485 141.048 65.3027C140.638 65.1204 140.142 65.0293 139.561 65.0293C138.923 65.0293 138.365 65.1603 137.886 65.4224C137.419 65.6844 137.032 66.049 136.724 66.5161C136.417 66.9718 136.189 67.5073 136.041 68.1226C135.892 68.7378 135.818 69.3986 135.818 70.105ZM146.824 69.541L145.064 69.7632C145.064 68.5555 145.212 67.4333 145.508 66.3965C145.816 65.3597 146.266 64.4482 146.858 63.6621C147.462 62.876 148.208 62.2664 149.097 61.8335C149.986 61.3892 151.011 61.167 152.173 61.167C153.062 61.167 153.871 61.298 154.6 61.5601C155.329 61.8107 155.95 62.2152 156.463 62.7734C156.987 63.3203 157.386 64.0381 157.659 64.9268C157.944 65.8154 158.086 66.9035 158.086 68.1909V80H153.147V68.1909C153.147 67.3364 153.034 66.687 152.806 66.2427C152.589 65.7869 152.27 65.4736 151.849 65.3027C151.438 65.1204 150.949 65.0293 150.379 65.0293C149.786 65.0293 149.268 65.1489 148.824 65.3882C148.379 65.616 148.009 65.9351 147.713 66.3452C147.417 66.7554 147.194 67.2339 147.046 67.7808C146.898 68.3162 146.824 68.903 146.824 69.541ZM171.878 75.8301V67.5928C171.878 67.0003 171.781 66.4933 171.587 66.0718C171.394 65.6388 171.092 65.3027 170.682 65.0635C170.283 64.8242 169.764 64.7046 169.126 64.7046C168.58 64.7046 168.107 64.8014 167.708 64.9951C167.309 65.1774 167.002 65.4451 166.785 65.7983C166.569 66.1401 166.46 66.5446 166.46 67.0117H161.539C161.539 66.2256 161.721 65.4793 162.085 64.7729C162.45 64.0666 162.98 63.4456 163.675 62.9102C164.37 62.3633 165.196 61.936 166.153 61.6284C167.121 61.3208 168.204 61.167 169.4 61.167C170.835 61.167 172.111 61.4062 173.228 61.8848C174.345 62.3633 175.222 63.0811 175.86 64.0381C176.509 64.9951 176.834 66.1914 176.834 67.627V75.5396C176.834 76.5535 176.897 77.3853 177.022 78.0347C177.147 78.6727 177.33 79.231 177.569 79.7095V80H172.596C172.356 79.4987 172.174 78.8721 172.049 78.1201C171.935 77.3568 171.878 76.5934 171.878 75.8301ZM172.527 68.7378L172.562 71.5234H169.81C169.161 71.5234 168.597 71.5975 168.118 71.7456C167.64 71.8937 167.247 72.1045 166.939 72.3779C166.631 72.64 166.403 72.9476 166.255 73.3008C166.119 73.654 166.05 74.0413 166.05 74.4629C166.05 74.8844 166.147 75.2661 166.341 75.6079C166.535 75.9383 166.814 76.2004 167.178 76.394C167.543 76.5763 167.97 76.6675 168.46 76.6675C169.201 76.6675 169.844 76.5194 170.391 76.2231C170.938 75.9269 171.36 75.5623 171.656 75.1294C171.963 74.6965 172.123 74.2863 172.134 73.8989L173.433 75.9839C173.251 76.451 173 76.9352 172.681 77.4365C172.374 77.9378 171.98 78.4106 171.502 78.855C171.023 79.2879 170.448 79.6468 169.776 79.9316C169.104 80.2051 168.306 80.3418 167.383 80.3418C166.21 80.3418 165.145 80.1082 164.188 79.6411C163.242 79.1626 162.49 78.5075 161.932 77.6758C161.385 76.8327 161.111 75.8757 161.111 74.8047C161.111 73.8363 161.294 72.9761 161.658 72.2241C162.023 71.4722 162.558 70.8398 163.265 70.3271C163.982 69.8031 164.877 69.41 165.948 69.1479C167.019 68.8745 168.261 68.7378 169.673 68.7378H172.527ZM191.993 55.1172H196.333L202.725 73.3862L209.117 55.1172H213.458L204.468 80H200.982L191.993 55.1172ZM189.651 55.1172H193.975L194.761 72.9248V80H189.651V55.1172ZM211.475 55.1172H215.816V80H210.689V72.9248L211.475 55.1172ZM229.983 75.8301V67.5928C229.983 67.0003 229.887 66.4933 229.693 66.0718C229.499 65.6388 229.197 65.3027 228.787 65.0635C228.388 64.8242 227.87 64.7046 227.232 64.7046C226.685 64.7046 226.212 64.8014 225.813 64.9951C225.415 65.1774 225.107 65.4451 224.891 65.7983C224.674 66.1401 224.566 66.5446 224.566 67.0117H219.644C219.644 66.2256 219.826 65.4793 220.191 64.7729C220.556 64.0666 221.085 63.4456 221.78 62.9102C222.475 62.3633 223.301 61.936 224.258 61.6284C225.227 61.3208 226.309 61.167 227.505 61.167C228.941 61.167 230.217 61.4062 231.333 61.8848C232.45 62.3633 233.327 63.0811 233.965 64.0381C234.615 64.9951 234.939 66.1914 234.939 67.627V75.5396C234.939 76.5535 235.002 77.3853 235.127 78.0347C235.253 78.6727 235.435 79.231 235.674 79.7095V80H230.701C230.462 79.4987 230.28 78.8721 230.154 78.1201C230.04 77.3568 229.983 76.5934 229.983 75.8301ZM230.633 68.7378L230.667 71.5234H227.916C227.266 71.5234 226.702 71.5975 226.224 71.7456C225.745 71.8937 225.352 72.1045 225.044 72.3779C224.737 72.64 224.509 72.9476 224.361 73.3008C224.224 73.654 224.156 74.0413 224.156 74.4629C224.156 74.8844 224.253 75.2661 224.446 75.6079C224.64 75.9383 224.919 76.2004 225.284 76.394C225.648 76.5763 226.076 76.6675 226.565 76.6675C227.306 76.6675 227.95 76.5194 228.497 76.2231C229.043 75.9269 229.465 75.5623 229.761 75.1294C230.069 74.6965 230.228 74.2863 230.24 73.8989L231.539 75.9839C231.356 76.451 231.106 76.9352 230.787 77.4365C230.479 77.9378 230.086 78.4106 229.607 78.855C229.129 79.2879 228.554 79.6468 227.881 79.9316C227.209 80.2051 226.412 80.3418 225.489 80.3418C224.315 80.3418 223.25 80.1082 222.293 79.6411C221.347 79.1626 220.595 78.5075 220.037 77.6758C219.49 76.8327 219.217 75.8757 219.217 74.8047C219.217 73.8363 219.399 72.9761 219.764 72.2241C220.128 71.4722 220.664 70.8398 221.37 70.3271C222.088 69.8031 222.982 69.41 224.053 69.1479C225.124 68.8745 226.366 68.7378 227.779 68.7378H230.633ZM243.536 53.75V80H238.614V53.75H243.536ZM242.835 70.105H241.485C241.496 68.8175 241.667 67.6326 241.998 66.5503C242.328 65.4565 242.801 64.5109 243.416 63.7134C244.031 62.9045 244.766 62.2778 245.621 61.8335C246.486 61.3892 247.444 61.167 248.492 61.167C249.403 61.167 250.229 61.298 250.97 61.5601C251.722 61.8107 252.365 62.2209 252.901 62.7905C253.448 63.3488 253.869 64.0837 254.166 64.9951C254.462 65.9066 254.61 67.0117 254.61 68.3105V80H249.654V68.2764C249.654 67.4561 249.534 66.8123 249.295 66.3452C249.067 65.8667 248.731 65.5306 248.287 65.3369C247.854 65.1318 247.318 65.0293 246.68 65.0293C245.974 65.0293 245.37 65.1603 244.869 65.4224C244.379 65.6844 243.986 66.049 243.689 66.5161C243.393 66.9718 243.177 67.5073 243.04 68.1226C242.903 68.7378 242.835 69.3986 242.835 70.105ZM263.274 65.3369V80H258.335V61.5088H262.967L263.274 65.3369ZM262.591 70.105H261.224C261.224 68.8175 261.377 67.6326 261.685 66.5503C262.004 65.4565 262.465 64.5109 263.069 63.7134C263.685 62.9045 264.442 62.2778 265.342 61.8335C266.242 61.3892 267.285 61.167 268.47 61.167C269.29 61.167 270.042 61.2923 270.726 61.543C271.409 61.7822 271.996 62.1639 272.486 62.688C272.987 63.2007 273.375 63.8729 273.648 64.7046C273.921 65.5249 274.058 66.5104 274.058 67.6611V80H269.136V68.208C269.136 67.3649 269.022 66.7155 268.794 66.2598C268.567 65.804 268.242 65.485 267.82 65.3027C267.41 65.1204 266.915 65.0293 266.333 65.0293C265.695 65.0293 265.137 65.1603 264.659 65.4224C264.192 65.6844 263.804 66.049 263.497 66.5161C263.189 66.9718 262.961 67.5073 262.813 68.1226C262.665 68.7378 262.591 69.3986 262.591 70.105ZM273.597 69.541L271.836 69.7632C271.836 68.5555 271.985 67.4333 272.281 66.3965C272.588 65.3597 273.038 64.4482 273.631 63.6621C274.235 62.876 274.981 62.2664 275.87 61.8335C276.758 61.3892 277.784 61.167 278.946 61.167C279.834 61.167 280.643 61.298 281.373 61.5601C282.102 61.8107 282.723 62.2152 283.235 62.7734C283.759 63.3203 284.158 64.0381 284.432 64.9268C284.716 65.8154 284.859 66.9035 284.859 68.1909V80H279.92V68.1909C279.92 67.3364 279.806 66.687 279.578 66.2427C279.362 65.7869 279.043 65.4736 278.621 65.3027C278.211 65.1204 277.721 65.0293 277.151 65.0293C276.559 65.0293 276.041 65.1489 275.596 65.3882C275.152 65.616 274.782 65.9351 274.485 66.3452C274.189 66.7554 273.967 67.2339 273.819 67.7808C273.671 68.3162 273.597 68.903 273.597 69.541ZM287.884 70.9424V70.5835C287.884 69.2277 288.077 67.9801 288.465 66.8408C288.852 65.6901 289.416 64.6932 290.157 63.8501C290.897 63.007 291.809 62.3519 292.891 61.8848C293.973 61.4062 295.215 61.167 296.617 61.167C298.018 61.167 299.266 61.4062 300.359 61.8848C301.453 62.3519 302.37 63.007 303.111 63.8501C303.863 64.6932 304.432 65.6901 304.82 66.8408C305.207 67.9801 305.401 69.2277 305.401 70.5835V70.9424C305.401 72.2868 305.207 73.5343 304.82 74.6851C304.432 75.8244 303.863 76.8213 303.111 77.6758C302.37 78.5189 301.459 79.174 300.376 79.6411C299.294 80.1082 298.052 80.3418 296.651 80.3418C295.25 80.3418 294.002 80.1082 292.908 79.6411C291.826 79.174 290.909 78.5189 290.157 77.6758C289.416 76.8213 288.852 75.8244 288.465 74.6851C288.077 73.5343 287.884 72.2868 287.884 70.9424ZM292.806 70.5835V70.9424C292.806 71.7171 292.874 72.4406 293.011 73.1128C293.147 73.785 293.364 74.3774 293.66 74.8901C293.968 75.3914 294.367 75.7845 294.856 76.0693C295.346 76.3542 295.944 76.4966 296.651 76.4966C297.334 76.4966 297.921 76.3542 298.411 76.0693C298.901 75.7845 299.294 75.3914 299.59 74.8901C299.887 74.3774 300.103 73.785 300.24 73.1128C300.388 72.4406 300.462 71.7171 300.462 70.9424V70.5835C300.462 69.8315 300.388 69.1252 300.24 68.4644C300.103 67.7922 299.881 67.1997 299.573 66.687C299.277 66.1629 298.884 65.7528 298.394 65.4565C297.904 65.1603 297.312 65.0122 296.617 65.0122C295.922 65.0122 295.329 65.1603 294.839 65.4565C294.361 65.7528 293.968 66.1629 293.66 66.687C293.364 67.1997 293.147 67.7922 293.011 68.4644C292.874 69.1252 292.806 69.8315 292.806 70.5835ZM319.363 75.5737V61.5088H324.285V80H319.654L319.363 75.5737ZM319.91 71.7798L321.363 71.7456C321.363 72.9761 321.22 74.1211 320.936 75.1807C320.651 76.2288 320.223 77.1403 319.654 77.915C319.084 78.6784 318.366 79.2765 317.5 79.7095C316.635 80.131 315.615 80.3418 314.441 80.3418C313.541 80.3418 312.71 80.2165 311.946 79.9658C311.194 79.7038 310.545 79.2993 309.998 78.7524C309.463 78.1942 309.041 77.4821 308.733 76.6162C308.437 75.7389 308.289 74.6851 308.289 73.4546V61.5088H313.211V73.4888C313.211 74.0356 313.274 74.4971 313.399 74.873C313.536 75.249 313.724 75.5566 313.963 75.7959C314.202 76.0352 314.481 76.2061 314.8 76.3086C315.131 76.4111 315.495 76.4624 315.894 76.4624C316.908 76.4624 317.706 76.2573 318.287 75.8472C318.879 75.437 319.295 74.8787 319.534 74.1724C319.785 73.4546 319.91 72.6571 319.91 71.7798ZM338.965 75.9668V53.75H343.921V80H339.461L338.965 75.9668ZM327.276 70.9766V70.6177C327.276 69.2049 327.435 67.9232 327.754 66.7725C328.073 65.6104 328.541 64.6134 329.156 63.7817C329.771 62.95 330.529 62.3063 331.429 61.8506C332.329 61.3949 333.354 61.167 334.505 61.167C335.587 61.167 336.533 61.3949 337.342 61.8506C338.162 62.3063 338.857 62.9557 339.427 63.7988C340.008 64.6305 340.475 65.616 340.828 66.7554C341.181 67.8833 341.438 69.1195 341.597 70.4639V71.25C341.438 72.5374 341.181 73.7337 340.828 74.8389C340.475 75.944 340.008 76.9124 339.427 77.7441C338.857 78.5645 338.162 79.2025 337.342 79.6582C336.521 80.1139 335.564 80.3418 334.471 80.3418C333.32 80.3418 332.295 80.1082 331.395 79.6411C330.506 79.174 329.754 78.5189 329.139 77.6758C328.535 76.8327 328.073 75.8415 327.754 74.7021C327.435 73.5628 327.276 72.321 327.276 70.9766ZM332.198 70.6177V70.9766C332.198 71.7399 332.255 72.452 332.369 73.1128C332.494 73.7736 332.693 74.3604 332.967 74.873C333.252 75.3743 333.616 75.7674 334.061 76.0522C334.516 76.3257 335.069 76.4624 335.718 76.4624C336.561 76.4624 337.256 76.2744 337.803 75.8984C338.35 75.5111 338.766 74.9813 339.051 74.3091C339.347 73.6369 339.518 72.8621 339.563 71.9849V69.7461C339.529 69.0283 339.427 68.3846 339.256 67.8149C339.096 67.2339 338.857 66.7383 338.538 66.3281C338.23 65.918 337.843 65.599 337.376 65.3711C336.92 65.1432 336.379 65.0293 335.752 65.0293C335.114 65.0293 334.568 65.1774 334.112 65.4736C333.656 65.7585 333.286 66.1515 333.001 66.6528C332.728 67.1541 332.522 67.7466 332.386 68.4302C332.26 69.1024 332.198 69.8315 332.198 70.6177Z" fill="#888888"/>
<rect x="92" y="181" width="1179" height="80" rx="13.3333" fill="#CCCCCC"/>
<rect x="107" y="196.333" width="208" height="49.3333" rx="4.66667" fill="#888888" stroke="#888888" stroke-width="4"/>
<path d="M183.833 213.167V228.333H180.177V213.167H183.833ZM189.729 219.479V222.292H182.792V219.479H189.729ZM190.323 213.167V215.99H182.792V213.167H190.323ZM195.385 212.333V228.333H191.865V212.333H195.385ZM204.135 225.594V217.062H207.656V228.333H204.365L204.135 225.594ZM204.469 223.302L205.385 223.281C205.385 224.038 205.295 224.74 205.115 225.385C204.934 226.024 204.667 226.58 204.313 227.052C203.965 227.524 203.535 227.892 203.021 228.156C202.514 228.413 201.927 228.542 201.26 228.542C200.705 228.542 200.194 228.465 199.729 228.312C199.271 228.153 198.875 227.906 198.542 227.573C198.208 227.233 197.948 226.799 197.76 226.271C197.58 225.736 197.49 225.097 197.49 224.354V217.062H201V224.375C201 224.625 201.031 224.84 201.094 225.021C201.156 225.201 201.247 225.354 201.365 225.479C201.483 225.597 201.628 225.687 201.802 225.75C201.983 225.805 202.188 225.833 202.417 225.833C202.944 225.833 203.358 225.722 203.656 225.5C203.955 225.278 204.163 224.976 204.281 224.594C204.406 224.212 204.469 223.781 204.469 223.302ZM215.531 217.062V219.5H208.74V217.062H215.531ZM210.167 214.26H213.677V224.656C213.677 224.955 213.712 225.187 213.781 225.354C213.851 225.514 213.969 225.628 214.135 225.698C214.309 225.76 214.538 225.792 214.823 225.792C215.024 225.792 215.191 225.788 215.323 225.781C215.455 225.767 215.58 225.75 215.698 225.729V228.24C215.399 228.337 215.087 228.41 214.76 228.458C214.434 228.514 214.087 228.542 213.719 228.542C212.969 228.542 212.326 228.424 211.792 228.187C211.264 227.951 210.861 227.58 210.583 227.073C210.306 226.566 210.167 225.906 210.167 225.094V214.26ZM222.865 217.062V219.5H216.073V217.062H222.865ZM217.5 214.26H221.01V224.656C221.01 224.955 221.045 225.187 221.115 225.354C221.184 225.514 221.302 225.628 221.469 225.698C221.642 225.76 221.872 225.792 222.156 225.792C222.358 225.792 222.524 225.788 222.656 225.781C222.788 225.767 222.913 225.75 223.031 225.729V228.24C222.733 228.337 222.42 228.41 222.094 228.458C221.767 228.514 221.42 228.542 221.052 228.542C220.302 228.542 219.66 228.424 219.125 228.187C218.597 227.951 218.194 227.58 217.917 227.073C217.639 226.566 217.5 225.906 217.5 225.094V214.26ZM229.719 228.542C228.802 228.542 227.983 228.399 227.26 228.115C226.538 227.823 225.927 227.424 225.427 226.917C224.934 226.41 224.556 225.826 224.292 225.167C224.035 224.507 223.906 223.809 223.906 223.073V222.677C223.906 221.851 224.021 221.087 224.25 220.385C224.479 219.677 224.819 219.059 225.271 218.531C225.722 218.003 226.288 217.594 226.969 217.302C227.649 217.003 228.441 216.854 229.344 216.854C230.142 216.854 230.858 216.983 231.49 217.24C232.122 217.496 232.656 217.865 233.094 218.344C233.538 218.823 233.875 219.403 234.104 220.083C234.34 220.764 234.458 221.528 234.458 222.375V223.802H225.25V221.604H231.031V221.333C231.038 220.958 230.972 220.639 230.833 220.375C230.701 220.111 230.507 219.91 230.25 219.771C229.993 219.632 229.681 219.562 229.312 219.562C228.931 219.562 228.615 219.646 228.365 219.812C228.122 219.979 227.931 220.208 227.792 220.5C227.66 220.785 227.566 221.115 227.51 221.49C227.455 221.865 227.427 222.26 227.427 222.677V223.073C227.427 223.49 227.483 223.868 227.594 224.208C227.712 224.549 227.878 224.84 228.094 225.083C228.316 225.319 228.58 225.503 228.885 225.635C229.198 225.767 229.552 225.833 229.948 225.833C230.427 225.833 230.899 225.743 231.365 225.562C231.83 225.382 232.229 225.083 232.562 224.667L234.156 226.562C233.927 226.889 233.601 227.205 233.177 227.51C232.76 227.816 232.26 228.066 231.677 228.26C231.094 228.448 230.441 228.542 229.719 228.542ZM239.427 219.854V228.333H235.917V217.062H239.198L239.427 219.854ZM242.76 216.979L242.698 220.24C242.559 220.226 242.372 220.208 242.135 220.187C241.899 220.167 241.701 220.156 241.542 220.156C241.132 220.156 240.778 220.205 240.479 220.302C240.187 220.392 239.944 220.531 239.75 220.719C239.562 220.899 239.424 221.128 239.333 221.406C239.25 221.684 239.212 222.007 239.219 222.375L238.583 221.958C238.583 221.201 238.656 220.514 238.802 219.896C238.955 219.271 239.17 218.733 239.448 218.281C239.726 217.823 240.062 217.472 240.458 217.229C240.854 216.979 241.299 216.854 241.792 216.854C241.965 216.854 242.135 216.865 242.302 216.885C242.476 216.906 242.628 216.937 242.76 216.979Z" fill="white"/>
<rect x="339" y="196.333" width="208" height="49.3333" rx="4.66667" fill="#888888" stroke="#888888" stroke-width="4"/>
<path d="M419.677 220.229V226.458C419.42 226.743 419.024 227.049 418.49 227.375C417.962 227.694 417.295 227.969 416.49 228.198C415.684 228.427 414.736 228.542 413.646 228.542C412.639 228.542 411.726 228.382 410.906 228.062C410.087 227.736 409.382 227.26 408.792 226.635C408.208 226.003 407.757 225.233 407.437 224.323C407.125 223.406 406.969 222.358 406.969 221.177V220.333C406.969 219.153 407.128 218.104 407.448 217.187C407.767 216.271 408.215 215.5 408.792 214.875C409.375 214.243 410.059 213.764 410.844 213.437C411.635 213.111 412.503 212.948 413.448 212.948C414.844 212.948 415.979 213.17 416.854 213.615C417.729 214.052 418.392 214.66 418.844 215.437C419.295 216.208 419.569 217.101 419.667 218.115H416.156C416.087 217.615 415.955 217.191 415.76 216.844C415.573 216.49 415.302 216.222 414.948 216.042C414.594 215.854 414.135 215.76 413.573 215.76C413.135 215.76 412.736 215.854 412.375 216.042C412.021 216.229 411.719 216.514 411.469 216.896C411.219 217.271 411.024 217.743 410.885 218.312C410.753 218.882 410.687 219.549 410.687 220.312V221.177C410.687 221.934 410.75 222.597 410.875 223.167C411.007 223.736 411.201 224.212 411.458 224.594C411.722 224.969 412.056 225.253 412.458 225.448C412.868 225.635 413.351 225.729 413.906 225.729C414.295 225.729 414.628 225.698 414.906 225.635C415.184 225.566 415.413 225.483 415.594 225.385C415.781 225.281 415.924 225.184 416.021 225.094V222.74H413.479V220.229H419.677ZM421.208 222.812V222.594C421.208 221.767 421.326 221.007 421.562 220.312C421.799 219.611 422.146 219.003 422.604 218.49C423.062 217.976 423.628 217.576 424.302 217.292C424.976 217 425.753 216.854 426.635 216.854C427.524 216.854 428.306 217 428.979 217.292C429.66 217.576 430.229 217.976 430.687 218.49C431.146 219.003 431.493 219.611 431.729 220.312C431.965 221.007 432.083 221.767 432.083 222.594V222.812C432.083 223.632 431.965 224.392 431.729 225.094C431.493 225.788 431.146 226.396 430.687 226.917C430.229 227.43 429.663 227.83 428.99 228.115C428.316 228.399 427.538 228.542 426.656 228.542C425.774 228.542 424.993 228.399 424.312 228.115C423.632 227.83 423.062 227.43 422.604 226.917C422.146 226.396 421.799 225.788 421.562 225.094C421.326 224.392 421.208 223.632 421.208 222.812ZM424.719 222.594V222.812C424.719 223.236 424.75 223.632 424.812 224C424.875 224.368 424.979 224.691 425.125 224.969C425.271 225.24 425.469 225.451 425.719 225.604C425.969 225.757 426.281 225.833 426.656 225.833C427.024 225.833 427.33 225.757 427.573 225.604C427.823 225.451 428.021 225.24 428.167 224.969C428.312 224.691 428.417 224.368 428.479 224C428.542 223.632 428.573 223.236 428.573 222.812V222.594C428.573 222.184 428.542 221.799 428.479 221.437C428.417 221.069 428.312 220.746 428.167 220.469C428.021 220.184 427.823 219.962 427.573 219.802C427.323 219.642 427.01 219.562 426.635 219.562C426.267 219.562 425.958 219.642 425.708 219.802C425.465 219.962 425.271 220.184 425.125 220.469C424.979 220.746 424.875 221.069 424.812 221.437C424.75 221.799 424.719 222.184 424.719 222.594ZM443.833 225.521V228.333H436.167V225.521H443.833ZM437.469 213.167V228.333H433.813V213.167H437.469ZM451.063 225.5V220.854C451.063 220.535 451.017 220.26 450.927 220.031C450.837 219.802 450.694 219.625 450.5 219.5C450.306 219.368 450.045 219.302 449.719 219.302C449.455 219.302 449.229 219.347 449.042 219.437C448.854 219.528 448.712 219.663 448.615 219.844C448.517 220.024 448.469 220.253 448.469 220.531H444.958C444.958 220.01 445.073 219.528 445.302 219.083C445.538 218.632 445.872 218.24 446.302 217.906C446.74 217.573 447.26 217.316 447.865 217.135C448.476 216.948 449.156 216.854 449.906 216.854C450.802 216.854 451.601 217.003 452.302 217.302C453.01 217.601 453.569 218.049 453.979 218.646C454.389 219.236 454.594 219.979 454.594 220.875V225.49C454.594 226.226 454.635 226.785 454.719 227.167C454.802 227.542 454.92 227.871 455.073 228.156V228.333H451.552C451.385 227.986 451.26 227.562 451.177 227.062C451.101 226.555 451.063 226.035 451.063 225.5ZM451.49 221.448L451.51 223.323H449.958C449.632 223.323 449.354 223.368 449.125 223.458C448.903 223.549 448.722 223.674 448.583 223.833C448.451 223.986 448.354 224.16 448.292 224.354C448.236 224.549 448.208 224.753 448.208 224.969C448.208 225.177 448.257 225.365 448.354 225.531C448.458 225.691 448.597 225.816 448.771 225.906C448.944 225.996 449.139 226.042 449.354 226.042C449.743 226.042 450.073 225.969 450.344 225.823C450.622 225.67 450.833 225.486 450.979 225.271C451.125 225.055 451.198 224.854 451.198 224.667L451.969 226.104C451.83 226.382 451.67 226.663 451.49 226.948C451.316 227.233 451.097 227.496 450.833 227.74C450.576 227.976 450.26 228.17 449.885 228.323C449.51 228.469 449.056 228.542 448.521 228.542C447.826 228.542 447.188 228.399 446.604 228.115C446.028 227.83 445.566 227.434 445.219 226.927C444.872 226.413 444.698 225.823 444.698 225.156C444.698 224.573 444.802 224.052 445.01 223.594C445.226 223.135 445.549 222.746 445.979 222.427C446.41 222.108 446.958 221.865 447.625 221.698C448.292 221.531 449.076 221.448 449.979 221.448H451.49ZM459.99 219.469V228.333H456.479V217.062H459.771L459.99 219.469ZM459.573 222.312L458.75 222.333C458.75 221.472 458.854 220.705 459.062 220.031C459.271 219.351 459.566 218.774 459.948 218.302C460.33 217.83 460.785 217.472 461.312 217.229C461.847 216.979 462.441 216.854 463.094 216.854C463.615 216.854 464.09 216.93 464.521 217.083C464.958 217.236 465.333 217.483 465.646 217.823C465.965 218.163 466.208 218.615 466.375 219.177C466.549 219.733 466.635 220.42 466.635 221.24V228.333H463.104V221.229C463.104 220.778 463.042 220.434 462.917 220.198C462.792 219.955 462.611 219.788 462.375 219.698C462.139 219.608 461.851 219.562 461.51 219.562C461.149 219.562 460.844 219.632 460.594 219.771C460.344 219.91 460.142 220.104 459.99 220.354C459.844 220.597 459.736 220.885 459.667 221.219C459.604 221.552 459.573 221.917 459.573 222.312ZM475.667 217.062H478.854V227.896C478.854 228.937 478.615 229.819 478.135 230.542C477.656 231.271 476.986 231.823 476.125 232.198C475.271 232.58 474.271 232.771 473.125 232.771C472.618 232.771 472.101 232.705 471.573 232.573C471.045 232.448 470.552 232.26 470.094 232.01C469.635 231.76 469.25 231.451 468.938 231.083L470.406 229.021C470.691 229.34 471.049 229.611 471.479 229.833C471.91 230.062 472.417 230.177 473 230.177C473.507 230.177 473.931 230.087 474.271 229.906C474.618 229.726 474.882 229.462 475.063 229.115C475.243 228.774 475.333 228.361 475.333 227.875V219.729L475.667 217.062ZM468.177 222.833V222.615C468.177 221.76 468.281 220.983 468.49 220.281C468.705 219.573 469.01 218.965 469.406 218.458C469.809 217.944 470.295 217.549 470.865 217.271C471.434 216.993 472.076 216.854 472.792 216.854C473.563 216.854 474.194 217.003 474.688 217.302C475.188 217.594 475.587 218.003 475.885 218.531C476.191 219.059 476.427 219.677 476.594 220.385C476.767 221.087 476.913 221.844 477.031 222.656V222.917C476.913 223.68 476.75 224.403 476.542 225.083C476.34 225.757 476.076 226.354 475.75 226.875C475.424 227.396 475.014 227.805 474.521 228.104C474.035 228.396 473.451 228.542 472.771 228.542C472.063 228.542 471.424 228.399 470.854 228.115C470.292 227.83 469.809 227.43 469.406 226.917C469.01 226.403 468.705 225.799 468.49 225.104C468.281 224.41 468.177 223.653 468.177 222.833ZM471.688 222.615V222.833C471.688 223.257 471.726 223.649 471.802 224.01C471.885 224.371 472.01 224.691 472.177 224.969C472.344 225.24 472.549 225.451 472.792 225.604C473.042 225.757 473.333 225.833 473.667 225.833C474.174 225.833 474.583 225.726 474.896 225.51C475.208 225.295 475.434 224.99 475.573 224.594C475.712 224.198 475.771 223.733 475.75 223.198V222.375C475.764 221.917 475.733 221.514 475.656 221.167C475.58 220.812 475.458 220.517 475.292 220.281C475.132 220.045 474.917 219.868 474.646 219.75C474.382 219.625 474.063 219.562 473.688 219.562C473.361 219.562 473.073 219.639 472.823 219.792C472.573 219.944 472.365 220.16 472.198 220.437C472.031 220.708 471.903 221.031 471.813 221.406C471.729 221.774 471.688 222.177 471.688 222.615Z" fill="white"/>
</svg>
